<?xml version="1.0" standalone="no"?>
<!DOCTYPE svg PUBLIC "-//W3C//DTD SVG 20010904//EN"
 "http://www.w3.org/TR/2001/REC-SVG-20010904/DTD/svg10.dtd">
<svg version="1.0" xmlns="http://www.w3.org/2000/svg"
 width="274.000000pt" height="274.000000pt" viewBox="0 0 274.000000 274.000000"
 preserveAspectRatio="xMidYMid meet">
<metadata>
Created by potrace 1.14, written by Peter Selinger 2001-2017
</metadata>
<g transform="translate(0.000000,274.000000) scale(0.100000,-0.100000)"
fill="#000000" stroke="none">
<path d="M115 1940 c3 -5 2 -10 -2 -10 -5 0 -9 -82 -8 -182 l0 -183 -45 -21
c-41 -20 -43 -22 -20 -25 14 -2 46 -2 72 2 94 11 263 0 353 -22 22 -6 47 -12
55 -13 8 -2 22 -6 30 -9 24 -8 144 -32 153 -29 4 1 7 -2 7 -6 0 -5 7 -9 15
-10 8 -1 22 -3 30 -4 8 -1 15 -4 15 -7 0 -4 12 -8 27 -9 15 -1 30 -7 34 -13 4
-7 11 -9 17 -5 6 3 18 -1 26 -10 9 -8 16 -12 16 -8 0 3 6 1 13 -5 8 -6 17 -8
20 -4 4 3 7 0 7 -7 0 -7 3 -10 7 -7 3 4 20 -2 38 -13 18 -11 35 -17 38 -13 4
3 7 1 7 -5 0 -7 7 -12 15 -12 8 0 15 -5 15 -12 0 -6 3 -8 6 -5 4 4 35 -9 70
-27 34 -19 64 -32 67 -30 2 3 10 -2 17 -11 7 -8 18 -15 25 -15 7 0 15 -7 19
-15 3 -8 12 -12 21 -9 8 3 15 1 15 -6 0 -6 4 -8 10 -5 5 3 10 1 10 -4 0 -6 6
-11 14 -11 8 0 36 -11 63 -24 26 -14 52 -24 57 -24 5 0 12 -4 15 -9 7 -11 168
-76 187 -76 8 0 14 -4 14 -9 0 -5 6 -8 13 -7 6 1 25 -3 41 -10 16 -6 31 -9 33
-7 3 3 17 0 32 -6 33 -13 143 -30 186 -29 31 1 130 9 130 11 0 2 58 11 88 13
9 1 17 5 17 9 0 4 11 8 25 8 14 0 25 5 25 10 0 6 8 10 18 10 17 0 34 8 115 52
68 37 181 143 192 179 4 11 10 19 15 19 4 0 11 11 14 25 4 14 11 25 16 25 6 0
10 6 10 14 0 8 5 27 11 43 6 15 9 28 8 28 -1 0 3 10 10 23 7 13 14 33 16 45 4
21 3 21 -15 -3 -11 -14 -20 -31 -20 -38 0 -7 -11 -25 -25 -40 -14 -15 -25 -31
-25 -36 0 -13 -162 -166 -171 -161 -4 3 -9 -2 -13 -10 -3 -8 -12 -15 -20 -15
-8 0 -16 -4 -18 -9 -8 -21 -184 -96 -258 -109 -38 -7 -226 -8 -277 -2 -18 2
-33 8 -33 12 0 9 51 5 68 -6 18 -11 44 14 39 36 -3 10 -2 18 1 18 4 0 5 24 4
54 -3 47 -1 54 17 59 11 2 22 2 26 -1 9 -10 45 -9 45 0 0 5 5 6 12 2 17 -11
98 -11 98 -1 0 5 5 5 12 1 17 -11 58 -11 58 -1 0 4 4 6 8 3 4 -2 34 6 65 19
31 12 57 21 57 20 0 -9 112 97 147 138 40 49 50 198 20 289 -18 51 -49 108
-59 108 -5 0 -8 4 -8 10 0 23 -121 116 -134 103 -3 -4 -6 -1 -6 5 0 7 -3 11
-7 11 -23 -4 -43 2 -38 11 9 14 -8 12 -24 -2 -11 -10 -12 -10 -7 -1 10 17
-435 17 -446 0 -6 -9 -8 -9 -8 1 0 6 -9 12 -20 12 -11 0 -20 -6 -20 -12 0 -9
-3 -9 -9 1 -5 8 -16 11 -26 8 -13 -6 -15 -15 -10 -44 7 -40 12 -64 15 -73 1
-3 2 -8 1 -12 0 -5 4 -8 11 -8 6 0 9 -3 5 -6 -3 -4 -1 -12 6 -19 7 -7 23 -27
36 -44 13 -17 29 -31 36 -31 7 0 15 -4 17 -9 5 -17 58 -22 218 -21 167 0 209
-9 227 -46 7 -16 8 -22 1 -17 -7 4 -8 1 -2 -8 12 -18 13 -79 2 -79 -4 0 -8 -7
-8 -15 0 -35 -46 -42 -312 -41 -142 1 -259 -2 -259 -6 -3 -20 -5 -24 -13 -37
-6 -9 -5 -12 1 -8 12 8 11 -132 -2 -153 -5 -8 -4 -11 1 -7 6 3 10 -28 10 -78
0 -46 -3 -79 -7 -73 -4 6 -12 7 -18 4 -6 -4 -11 -3 -11 1 0 8 -80 47 -90 43
-14 -5 -17 71 -16 403 1 202 -3 367 -7 367 -5 0 -5 5 -2 10 3 6 1 10 -4 10 -6
0 -11 -4 -11 -8 0 -4 -11 -9 -25 -10 -33 -2 -115 -42 -115 -55 0 -6 -3 -7 -6
-4 -6 6 -44 -35 -44 -47 0 -4 -8 -18 -17 -33 -24 -36 -24 -40 -27 -188 l-2
-130 -221 0 c-163 0 -225 3 -234 12 -9 9 -13 56 -14 153 -1 94 -5 144 -13 152
-7 7 -12 20 -12 31 0 10 -4 16 -8 13 -5 -3 -15 5 -22 18 -6 13 -35 34 -63 47
-53 25 -55 26 -88 28 -11 0 -18 5 -15 10 4 5 -2 8 -11 7 -14 -2 -18 -12 -17
-39 0 -21 -3 -37 -7 -37 -5 0 -4 -11 1 -25 7 -18 6 -25 -3 -25 -8 0 -8 -3 -2
-8 12 -8 13 -51 2 -69 -5 -7 -4 -13 1 -13 10 0 9 -50 -2 -68 -4 -7 -3 -12 3
-12 10 0 10 -18 -2 -37 -4 -6 -3 -14 2 -18 6 -3 8 -12 5 -20 -5 -11 -17 -13
-52 -9 -64 8 -96 12 -102 14 -3 2 -8 2 -11 2 -3 0 -6 40 -6 89 -1 77 -5 97
-28 144 -23 45 -37 59 -85 84 -32 17 -65 31 -74 31 -9 0 -16 6 -16 13 0 8 -4
7 -10 -3 -6 -10 -10 -11 -10 -2 0 6 -5 12 -11 12 -5 0 -7 -4 -4 -10z m1669
-871 c-4 -7 -44 0 -44 7 0 2 11 3 24 2 14 -1 23 -5 20 -9z"/>
<path d="M120 1481 c-13 -5 -15 -43 -14 -267 0 -298 2 -307 80 -371 25 -21 48
-38 52 -39 11 -1 66 -23 85 -34 14 -8 19 -6 25 9 8 23 8 689 -1 697 -8 8 -209
13 -227 5z"/>
<path d="M530 1420 c0 -6 1 -11 2 -12 1 -2 -4 -13 -10 -25 -9 -16 -9 -24 -1
-29 8 -4 7 -9 -2 -15 -8 -5 -9 -9 -3 -9 12 0 12 -49 0 -68 -4 -7 -3 -12 2 -12
10 0 9 -50 -2 -68 -4 -7 -3 -12 2 -12 12 0 10 -63 -3 -72 -6 -5 -6 -8 1 -8 12
0 12 -65 1 -77 -4 -3 -2 -12 4 -19 6 -8 9 -21 5 -29 -3 -8 -1 -15 4 -15 6 0 9
-3 8 -7 -5 -14 24 -73 35 -73 6 0 8 -3 4 -6 -6 -6 45 -54 57 -54 4 0 16 -9 28
-20 12 -10 25 -17 29 -14 5 3 18 0 30 -7 17 -9 20 -8 13 3 -7 11 -5 11 9 0 9
-8 20 -11 24 -9 5 3 8 48 8 99 -1 52 3 99 9 107 8 11 8 13 0 8 -13 -7 -13 91
0 112 6 9 5 12 -1 8 -11 -7 -12 61 -1 78 4 6 3 17 -3 25 -5 8 -9 17 -9 20 0 7
59 5 66 -2 3 -4 19 -2 35 2 17 5 31 5 35 -1 3 -5 11 -6 17 -2 18 11 50 11 66
-1 11 -8 13 -8 8 0 -4 8 8 11 38 9 25 -1 45 0 45 2 0 3 -80 42 -100 48 -3 1
-16 6 -30 12 -98 41 -155 63 -167 63 -7 0 -13 4 -13 8 0 4 -12 9 -27 10 -15 1
-30 8 -35 15 -4 6 -8 8 -8 4 0 -4 -9 -3 -19 3 -11 5 -37 13 -58 16 -21 3 -42
9 -48 12 -18 11 -45 12 -45 2z"/>
<path d="M1243 1134 c-7 -17 -9 -39 -3 -54 6 -17 7 -40 1 -40 -8 0 -7 -73 2
-87 4 -7 4 -14 0 -16 -7 -4 -9 -102 -3 -102 1 0 3 -8 5 -17 2 -10 -1 -18 -6
-18 -6 0 -5 -8 1 -20 8 -15 21 -20 50 -20 22 0 40 4 40 9 0 5 14 11 32 15 30
6 108 76 108 96 0 5 5 21 12 37 6 15 12 35 12 43 1 8 4 20 8 25 10 16 -3 30
-47 51 -22 10 -42 20 -45 24 -3 3 -36 21 -75 40 -38 19 -73 39 -76 44 -4 5
-11 0 -16 -10z"/>
<path d="M1668 945 c-7 -7 2 -55 11 -55 3 0 12 -12 18 -27 11 -25 73 -76 95
-79 4 -1 11 -3 16 -4 4 -1 12 -3 17 -5 6 -1 12 -3 15 -5 3 -1 16 -4 29 -5 29
-3 59 20 38 28 -6 3 -7 6 -2 6 12 1 7 82 -6 95 -9 10 -24 14 -79 20 -19 2 -43
7 -52 11 -9 4 -22 4 -28 0 -5 -3 -10 -2 -10 4 0 6 -6 8 -14 5 -8 -3 -17 -1
-21 5 -7 12 -18 14 -27 6z"/>
</g>
</svg>
