<svg width="52" height="52" viewBox="0 0 52 52" fill="none" xmlns="http://www.w3.org/2000/svg">
<g clip-path="url(#clip0_4_25)">
<g clip-path="url(#clip1_4_25)">
<path fill-rule="evenodd" clip-rule="evenodd" d="M35.3401 21.4921L31.3367 13.2544L30.9394 13.6781L34.8329 21.6977L35.3401 21.4921Z" fill="#105887"/>
<mask id="mask0_4_25" style="mask-type:luminance" maskUnits="userSpaceOnUse" x="-52" y="-30" width="158" height="113">
<path d="M-52 -30H106V83H-52V-30Z" fill="white"/>
</mask>
<g mask="url(#mask0_4_25)">
<path fill-rule="evenodd" clip-rule="evenodd" d="M42.1238 35.4508L36.5762 24.0357L36.0611 24.2278L41.6171 35.6727C41.8628 36.0433 42.1527 36.2667 42.4911 36.328L42.5906 35.7836C42.4209 35.7938 42.267 35.6685 42.1238 35.4508Z" fill="#105887"/>
<path d="M7.00342 37.1877H8.1987V43.6479H7.00342V37.1877Z" fill="#105887"/>
<path d="M16.8122 37.1782H18.0165V43.6479H17.2682V43.6572L13.9108 39.2919V43.6479H12.7061V37.1877H13.6825L16.8122 41.1928V37.1782Z" fill="#105887"/>
<path d="M23.5187 42.4757H24.8326C26.2833 42.4757 26.8581 41.4051 26.8309 40.3531C26.8033 39.3472 26.2195 38.3411 24.8326 38.3411H23.5187V42.4757ZM28.0262 40.3624C28.0536 41.996 27.0681 43.6479 24.8326 43.6479H22.3234V37.1877H24.8326C27.0225 37.1877 27.999 38.7655 28.0262 40.3624Z" fill="#105887"/>
<path d="M32.1139 37.1877H33.3092V43.6479H32.1139V37.1877Z" fill="#105887"/>
<path d="M40.5906 38.5442L39.4045 41.2943H41.7769L40.5906 38.5442ZM42.2601 42.4296H38.9208L38.3734 43.6479H37.0683L39.9337 37.1877H41.2476L44.1128 43.6479H42.7987L42.2601 42.4296Z" fill="#105887"/>
<path fill-rule="evenodd" clip-rule="evenodd" d="M38.0374 20.3995L39.5992 20.2535L33.7372 8.12638C32.6416 6.87029 31.5075 6.6294 30.3062 8.19681L19.1721 30.1967C18.6367 31.2243 17.8993 31.8108 16.9936 32.0322C3.71648 32.5453 0.208126 11.9676 16.3381 10.0879L23.7365 10.2263C25.127 10.1985 25.0677 7.50811 23.7365 7.29873L15.8462 7.25849C0.692134 7.45591 -4.29959 32.7877 16.7361 35.2841C18.2788 35.2218 19.7032 34.6981 20.6634 33.6677L30.9242 13.1228C31.3804 12.1198 31.8605 12.0488 32.3698 13.1031L36.2252 21.1336L38.0374 20.3995Z" fill="#105887"/>
<path fill-rule="evenodd" clip-rule="evenodd" d="M40.6866 22.5036L37.4603 23.7063L42.8875 35.0113C44.2588 35.6097 45.5342 35.6231 46.6938 34.931L40.6866 22.5036Z" fill="#105887"/>
<path fill-rule="evenodd" clip-rule="evenodd" d="M24.6642 22.2392C32.134 21.609 39.8584 19.187 47.4894 17.1139C40.1572 20.941 34.9853 22.2153 28.6063 24.001L30.501 27.7091L28.2261 28.7347L24.6642 22.2392Z" fill="#F47920"/>
<path fill-rule="evenodd" clip-rule="evenodd" d="M30.7973 24.8245C39.2403 22.1466 44.288 20.5792 51.3233 17.8819C46.3186 20.892 40.1661 23.7364 34.2899 26.0409L36.2229 29.552L34.1638 30.7422L30.7973 24.8245Z" fill="#55B947"/>
</g>
</g>
</g>
<defs>
<clipPath id="clip0_4_25">
<rect width="52" height="52" fill="white"/>
</clipPath>
<clipPath id="clip1_4_25">
<rect width="158" height="113" fill="white" transform="translate(-52 -30)"/>
</clipPath>
</defs>
</svg>
