<svg width="134" height="51" viewBox="0 0 134 51" fill="none" xmlns="http://www.w3.org/2000/svg">
<g clip-path="url(#clip0_1_28)">
<g clip-path="url(#clip1_1_28)">
<path fill-rule="evenodd" clip-rule="evenodd" d="M76.1239 20.0274L71.7178 11.0641L71.2806 11.5251L75.5656 20.2511L76.1239 20.0274Z" fill="#105887"/>
<mask id="mask0_1_28" style="mask-type:luminance" maskUnits="userSpaceOnUse" x="-20" y="-36" width="174" height="123">
<path d="M-20 -36H153.89V86.9526H-20V-36Z" fill="white"/>
</mask>
<g mask="url(#mask0_1_28)">
<path fill-rule="evenodd" clip-rule="evenodd" d="M83.5899 35.2154L77.4843 22.7949L76.9174 23.004L83.0322 35.4569C83.3026 35.8601 83.6217 36.1032 83.9941 36.1699L84.1035 35.5775C83.9168 35.5887 83.7475 35.4523 83.5899 35.2154Z" fill="#105887"/>
<path d="M44.9374 37.1053H46.2529V44.1345H44.9374V37.1053Z" fill="#105887"/>
<path d="M55.7326 37.0949H57.0581V44.1345H56.2345V44.1446L52.5394 39.3948V44.1345H51.2136V37.1053H52.2883L55.7326 41.4632V37.0949Z" fill="#105887"/>
<path d="M63.1136 42.8591H64.5596C66.1562 42.8591 66.7889 41.6942 66.7589 40.5495C66.7286 39.455 66.086 38.3603 64.5596 38.3603H63.1136V42.8591ZM68.0744 40.5596C68.1046 42.3371 67.02 44.1345 64.5596 44.1345H61.7981V37.1053H64.5596C66.9698 37.1053 68.0445 38.8221 68.0744 40.5596Z" fill="#105887"/>
<path d="M72.5732 37.1053H73.8887V44.1345H72.5732V37.1053Z" fill="#105887"/>
<path d="M81.9024 38.5813L80.597 41.5736H83.208L81.9024 38.5813ZM83.7398 42.8089H80.0647L79.4622 44.1346H78.0259L81.1795 37.1053H82.6255L85.7789 44.1346H84.3326L83.7398 42.8089Z" fill="#105887"/>
<path fill-rule="evenodd" clip-rule="evenodd" d="M79.0924 18.8385L80.8113 18.6797L74.3598 5.48441C73.154 4.11769 71.9058 3.85558 70.5837 5.56104L58.3299 29.4986C57.7406 30.6167 56.9291 31.2549 55.9323 31.4957C41.3199 32.054 37.4587 9.6639 55.2108 7.61867L63.3533 7.76924C64.8836 7.73908 64.8184 4.81169 63.3533 4.58387L54.6694 4.54008C37.9914 4.75489 32.4976 32.3178 55.6489 35.0341C57.3467 34.9663 58.9144 34.3965 59.9711 33.2753L71.2639 10.9209C71.766 9.82955 72.2943 9.7523 72.8549 10.8995L77.098 19.6372L79.0924 18.8385Z" fill="#105887"/>
<path fill-rule="evenodd" clip-rule="evenodd" d="M82.0081 21.1279L78.4573 22.4366L84.4303 34.7373C85.9395 35.3883 87.3432 35.403 88.6195 34.6499L82.0081 21.1279Z" fill="#105887"/>
<path fill-rule="evenodd" clip-rule="evenodd" d="M64.3743 20.8402C72.5953 20.1545 81.0966 17.5192 89.495 15.2635C81.4254 19.4277 75.7334 20.8142 68.7129 22.7572L70.7982 26.7919L68.2944 27.9079L64.3743 20.8402Z" fill="#F47920"/>
<path fill-rule="evenodd" clip-rule="evenodd" d="M71.1242 23.6532C80.4164 20.7395 85.9716 19.034 93.7145 16.0992C88.2065 19.3744 81.4352 22.4693 74.968 24.9768L77.0955 28.7971L74.8292 30.0921L71.1242 23.6532Z" fill="#55B947"/>
</g>
</g>
</g>
<defs>
<clipPath id="clip0_1_28">
<rect width="134" height="51" fill="white"/>
</clipPath>
<clipPath id="clip1_1_28">
<rect width="173.89" height="122.953" fill="white" transform="translate(-20 -36)"/>
</clipPath>
</defs>
</svg>
