<svg xmlns="http://www.w3.org/2000/svg" xmlns:xlink="http://www.w3.org/1999/xlink" width="1080" zoomAndPan="magnify" viewBox="0 0 810 809.999993" height="1080" preserveAspectRatio="xMidYMid meet" version="1.0"><path fill="#fff" d="M 550.671875 222.1875 C 549.121094 222.1875 547.574219 222.261719 546.03125 222.414062 C 544.488281 222.566406 542.953125 222.792969 541.433594 223.097656 C 539.910156 223.398438 538.410156 223.777344 536.925781 224.226562 C 535.441406 224.675781 533.980469 225.199219 532.546875 225.792969 C 531.113281 226.386719 529.714844 227.046875 528.347656 227.78125 C 526.976562 228.511719 525.648438 229.308594 524.359375 230.167969 C 523.070312 231.03125 521.824219 231.953125 520.625 232.9375 C 519.425781 233.921875 518.28125 234.960938 517.183594 236.058594 C 516.085938 237.15625 515.046875 238.304688 514.0625 239.503906 C 513.078125 240.703125 512.152344 241.945312 511.292969 243.238281 C 510.429688 244.527344 509.632812 245.855469 508.902344 247.222656 C 508.171875 248.589844 507.507812 249.992188 506.914062 251.425781 C 506.320312 252.859375 505.800781 254.316406 505.351562 255.800781 C 504.898438 257.285156 504.523438 258.789062 504.21875 260.308594 C 503.917969 261.832031 503.691406 263.363281 503.539062 264.90625 C 503.386719 266.453125 503.308594 268 503.308594 269.550781 C 503.308594 271.101562 503.386719 272.648438 503.539062 274.191406 C 503.691406 275.738281 503.917969 277.269531 504.21875 278.789062 C 504.523438 280.3125 504.898438 281.816406 505.351562 283.300781 C 505.800781 284.785156 506.320312 286.242188 506.914062 287.675781 C 507.507812 289.109375 508.171875 290.507812 508.902344 291.878906 C 509.632812 293.246094 510.429688 294.574219 511.292969 295.863281 C 512.152344 297.152344 513.078125 298.398438 514.0625 299.597656 C 515.046875 300.796875 516.085938 301.945312 517.183594 303.042969 C 518.28125 304.136719 519.425781 305.179688 520.625 306.164062 C 521.824219 307.148438 523.070312 308.070312 524.359375 308.929688 C 525.648438 309.792969 526.976562 310.589844 528.347656 311.320312 C 529.714844 312.050781 531.113281 312.714844 532.546875 313.308594 C 533.980469 313.902344 535.441406 314.421875 536.925781 314.875 C 538.410156 315.324219 539.910156 315.699219 541.433594 316.003906 C 542.953125 316.304688 544.488281 316.535156 546.03125 316.683594 C 547.574219 316.835938 549.121094 316.914062 550.671875 316.914062 C 552.226562 316.914062 553.773438 316.835938 555.316406 316.683594 C 556.859375 316.535156 558.390625 316.304688 559.914062 316.003906 C 561.433594 315.699219 562.9375 315.324219 564.421875 314.875 C 565.90625 314.421875 567.363281 313.902344 568.796875 313.308594 C 570.230469 312.714844 571.632812 312.050781 573 311.320312 C 574.367188 310.589844 575.695312 309.792969 576.988281 308.929688 C 578.277344 308.070312 579.519531 307.148438 580.71875 306.164062 C 581.917969 305.179688 583.066406 304.136719 584.164062 303.042969 C 585.261719 301.945312 586.300781 300.796875 587.285156 299.597656 C 588.269531 298.398438 589.191406 297.152344 590.054688 295.863281 C 590.914062 294.574219 591.710938 293.246094 592.445312 291.878906 C 593.175781 290.507812 593.835938 289.109375 594.429688 287.675781 C 595.023438 286.242188 595.546875 284.785156 595.996094 283.300781 C 596.449219 281.816406 596.824219 280.3125 597.125 278.789062 C 597.429688 277.269531 597.65625 275.738281 597.808594 274.191406 C 597.960938 272.648438 598.035156 271.101562 598.035156 269.550781 C 598.035156 268 597.960938 266.453125 597.808594 264.90625 C 597.65625 263.363281 597.429688 261.832031 597.125 260.308594 C 596.824219 258.789062 596.449219 257.285156 595.996094 255.800781 C 595.546875 254.316406 595.023438 252.859375 594.429688 251.425781 C 593.835938 249.992188 593.175781 248.589844 592.445312 247.222656 C 591.710938 245.855469 590.914062 244.527344 590.054688 243.238281 C 589.191406 241.945312 588.269531 240.703125 587.285156 239.503906 C 586.300781 238.304688 585.261719 237.15625 584.164062 236.058594 C 583.066406 234.960938 581.917969 233.921875 580.71875 232.9375 C 579.519531 231.953125 578.277344 231.03125 576.988281 230.167969 C 575.695312 229.308594 574.367188 228.511719 573 227.78125 C 571.632812 227.046875 570.230469 226.386719 568.796875 225.792969 C 567.363281 225.199219 565.90625 224.675781 564.421875 224.226562 C 562.9375 223.777344 561.433594 223.398438 559.914062 223.097656 C 558.390625 222.792969 556.859375 222.566406 555.316406 222.414062 C 553.773438 222.261719 552.226562 222.1875 550.671875 222.1875 Z M 272.039062 447.796875 C 273.679688 447.796875 275.320312 447.835938 276.960938 447.917969 C 278.601562 447.996094 280.238281 448.117188 281.871094 448.277344 C 283.507812 448.441406 285.136719 448.640625 286.761719 448.882812 C 288.386719 449.121094 290.003906 449.402344 291.613281 449.722656 C 293.222656 450.042969 294.828125 450.402344 296.417969 450.804688 C 298.011719 451.203125 299.59375 451.640625 301.167969 452.117188 C 302.738281 452.59375 304.296875 453.109375 305.84375 453.660156 C 307.390625 454.214844 308.921875 454.804688 310.4375 455.433594 C 311.953125 456.0625 313.457031 456.726562 314.941406 457.429688 C 316.425781 458.132812 317.890625 458.871094 319.339844 459.644531 C 320.789062 460.417969 322.214844 461.226562 323.625 462.074219 C 325.035156 462.917969 326.421875 463.792969 327.785156 464.707031 C 329.152344 465.621094 330.492188 466.566406 331.8125 467.542969 C 333.132812 468.523438 334.425781 469.53125 335.695312 470.574219 C 336.964844 471.613281 338.207031 472.6875 339.425781 473.789062 C 340.640625 474.894531 341.832031 476.023438 342.992188 477.1875 C 344.152344 478.347656 345.285156 479.535156 346.386719 480.753906 C 347.492188 481.96875 348.5625 483.214844 349.605469 484.484375 C 350.648438 485.753906 351.65625 487.046875 352.636719 488.367188 C 353.613281 489.683594 354.558594 491.027344 355.472656 492.390625 C 356.382812 493.757812 357.261719 495.144531 358.105469 496.554688 C 358.949219 497.960938 359.761719 499.390625 360.535156 500.839844 C 361.308594 502.289062 362.046875 503.753906 362.75 505.238281 C 363.449219 506.722656 364.117188 508.222656 364.746094 509.742188 C 365.371094 511.257812 365.964844 512.789062 366.515625 514.335938 C 367.070312 515.882812 367.585938 517.441406 368.0625 519.011719 C 368.539062 520.585938 368.976562 522.167969 369.375 523.757812 C 369.773438 525.351562 370.132812 526.953125 370.453125 528.566406 C 370.773438 530.175781 371.054688 531.792969 371.296875 533.417969 C 371.539062 535.042969 371.738281 536.671875 371.898438 538.304688 C 372.0625 539.941406 372.179688 541.578125 372.261719 543.21875 C 372.34375 544.859375 372.382812 546.5 372.382812 548.140625 C 372.382812 549.785156 372.34375 551.425781 372.261719 553.066406 C 372.179688 554.707031 372.0625 556.34375 371.898438 557.976562 C 371.738281 559.613281 371.539062 561.242188 371.296875 562.863281 C 371.054688 564.488281 370.773438 566.105469 370.453125 567.71875 C 370.132812 569.328125 369.773438 570.929688 369.375 572.523438 C 368.976562 574.117188 368.539062 575.699219 368.0625 577.269531 C 367.585938 578.839844 367.070312 580.402344 366.515625 581.945312 C 365.964844 583.492188 365.371094 585.023438 364.746094 586.542969 C 364.117188 588.058594 363.449219 589.558594 362.75 591.042969 C 362.046875 592.527344 361.308594 593.996094 360.535156 595.445312 C 359.761719 596.890625 358.949219 598.320312 358.105469 599.730469 C 357.261719 601.136719 356.382812 602.523438 355.472656 603.890625 C 354.558594 605.257812 353.613281 606.597656 352.636719 607.917969 C 351.65625 609.234375 350.648438 610.53125 349.605469 611.800781 C 348.5625 613.070312 347.492188 614.3125 346.386719 615.53125 C 345.285156 616.746094 344.152344 617.933594 342.992188 619.097656 C 341.832031 620.257812 340.640625 621.390625 339.425781 622.492188 C 338.207031 623.59375 336.964844 624.667969 335.695312 625.710938 C 334.425781 626.75 333.132812 627.761719 331.8125 628.738281 C 330.492188 629.71875 329.152344 630.664062 327.785156 631.574219 C 326.421875 632.488281 325.035156 633.367188 323.625 634.210938 C 322.214844 635.054688 320.789062 635.863281 319.339844 636.636719 C 317.890625 637.414062 316.425781 638.152344 314.941406 638.851562 C 313.457031 639.554688 311.953125 640.21875 310.4375 640.847656 C 308.921875 641.476562 307.390625 642.066406 305.84375 642.621094 C 304.296875 643.175781 302.738281 643.6875 301.167969 644.167969 C 299.59375 644.644531 298.011719 645.082031 296.417969 645.480469 C 294.828125 645.878906 293.222656 646.238281 291.613281 646.558594 C 290.003906 646.878906 288.386719 647.160156 286.761719 647.402344 C 285.136719 647.640625 283.507812 647.84375 281.871094 648.003906 C 280.238281 648.164062 278.601562 648.285156 276.960938 648.367188 C 275.320312 648.445312 273.679688 648.488281 272.039062 648.488281 C 270.394531 648.488281 268.753906 648.445312 267.113281 648.367188 C 265.472656 648.285156 263.835938 648.164062 262.203125 648.003906 C 260.566406 647.84375 258.9375 647.640625 257.3125 647.402344 C 255.6875 647.160156 254.070312 646.878906 252.460938 646.558594 C 250.851562 646.238281 249.25 645.878906 247.65625 645.480469 C 246.0625 645.082031 244.480469 644.644531 242.910156 644.164062 C 241.335938 643.6875 239.777344 643.175781 238.230469 642.621094 C 236.6875 642.066406 235.152344 641.476562 233.636719 640.847656 C 232.121094 640.21875 230.617188 639.554688 229.132812 638.851562 C 227.648438 638.152344 226.183594 637.414062 224.734375 636.636719 C 223.285156 635.863281 221.859375 635.054688 220.449219 634.210938 C 219.039062 633.367188 217.652344 632.488281 216.289062 631.574219 C 214.921875 630.664062 213.582031 629.71875 212.261719 628.738281 C 210.941406 627.761719 209.648438 626.75 208.378906 625.710938 C 207.109375 624.667969 205.867188 623.59375 204.648438 622.492188 C 203.433594 621.390625 202.242188 620.257812 201.082031 619.097656 C 199.921875 617.933594 198.789062 616.746094 197.6875 615.53125 C 196.582031 614.3125 195.511719 613.070312 194.46875 611.800781 C 193.425781 610.53125 192.417969 609.234375 191.4375 607.917969 C 190.460938 606.597656 189.515625 605.257812 188.601562 603.890625 C 187.691406 602.523438 186.8125 601.136719 185.96875 599.730469 C 185.125 598.320312 184.316406 596.890625 183.539062 595.445312 C 182.765625 593.996094 182.027344 592.527344 181.324219 591.042969 C 180.625 589.558594 179.957031 588.058594 179.332031 586.542969 C 178.703125 585.023438 178.109375 583.492188 177.558594 581.945312 C 177.003906 580.402344 176.488281 578.839844 176.011719 577.269531 C 175.535156 575.699219 175.097656 574.117188 174.699219 572.523438 C 174.300781 570.929688 173.941406 569.328125 173.621094 567.71875 C 173.300781 566.105469 173.019531 564.488281 172.777344 562.863281 C 172.535156 561.242188 172.335938 559.613281 172.175781 557.976562 C 172.015625 556.34375 171.894531 554.707031 171.8125 553.066406 C 171.730469 551.425781 171.691406 549.785156 171.691406 548.140625 C 171.691406 546.5 171.730469 544.859375 171.8125 543.21875 C 171.894531 541.578125 172.015625 539.941406 172.175781 538.304688 C 172.335938 536.671875 172.535156 535.042969 172.777344 533.417969 C 173.019531 531.792969 173.300781 530.175781 173.621094 528.566406 C 173.941406 526.953125 174.300781 525.351562 174.699219 523.757812 C 175.097656 522.167969 175.535156 520.585938 176.011719 519.011719 C 176.488281 517.441406 177.003906 515.882812 177.558594 514.335938 C 178.109375 512.789062 178.703125 511.257812 179.332031 509.742188 C 179.957031 508.222656 180.625 506.722656 181.324219 505.238281 C 182.027344 503.753906 182.765625 502.289062 183.539062 500.839844 C 184.316406 499.390625 185.125 497.960938 185.96875 496.554688 C 186.8125 495.144531 187.691406 493.757812 188.601562 492.390625 C 189.515625 491.027344 190.460938 489.683594 191.4375 488.367188 C 192.417969 487.046875 193.425781 485.753906 194.46875 484.484375 C 195.511719 483.214844 196.582031 481.96875 197.6875 480.753906 C 198.789062 479.535156 199.921875 478.347656 201.082031 477.1875 C 202.242188 476.023438 203.433594 474.894531 204.648438 473.789062 C 205.867188 472.6875 207.109375 471.613281 208.378906 470.574219 C 209.648438 469.53125 210.941406 468.523438 212.261719 467.542969 C 213.582031 466.566406 214.921875 465.621094 216.289062 464.707031 C 217.652344 463.792969 219.039062 462.917969 220.449219 462.074219 C 221.859375 461.226562 223.285156 460.417969 224.734375 459.644531 C 226.183594 458.871094 227.648438 458.132812 229.132812 457.429688 C 230.617188 456.726562 232.121094 456.0625 233.636719 455.433594 C 235.152344 454.804688 236.6875 454.214844 238.230469 453.660156 C 239.777344 453.109375 241.335938 452.59375 242.910156 452.117188 C 244.480469 451.640625 246.0625 451.203125 247.65625 450.804688 C 249.25 450.402344 250.851562 450.042969 252.460938 449.722656 C 254.070312 449.402344 255.6875 449.125 257.3125 448.882812 C 258.9375 448.640625 260.566406 448.441406 262.203125 448.277344 C 263.835938 448.117188 265.472656 447.996094 267.113281 447.917969 C 268.753906 447.835938 270.394531 447.796875 272.039062 447.796875 Z M 219.605469 559.804688 L 244.894531 585.089844 C 245.488281 585.6875 246.136719 586.21875 246.839844 586.6875 C 247.539062 587.15625 248.28125 587.550781 249.058594 587.875 C 249.839844 588.195312 250.640625 588.441406 251.46875 588.605469 C 252.296875 588.769531 253.132812 588.851562 253.972656 588.851562 C 254.816406 588.851562 255.652344 588.769531 256.480469 588.605469 C 257.308594 588.441406 258.109375 588.195312 258.890625 587.875 C 259.667969 587.550781 260.410156 587.15625 261.109375 586.6875 C 261.8125 586.21875 262.460938 585.6875 263.054688 585.089844 L 263.125 585.015625 L 324.015625 529.757812 C 324.648438 529.191406 325.214844 528.570312 325.722656 527.894531 C 326.230469 527.21875 326.667969 526.496094 327.035156 525.734375 C 327.398438 524.96875 327.6875 524.175781 327.894531 523.355469 C 328.101562 522.535156 328.226562 521.703125 328.273438 520.859375 C 328.316406 520.011719 328.273438 519.171875 328.152344 518.335938 C 328.027344 517.496094 327.824219 516.679688 327.539062 515.882812 C 327.253906 515.085938 326.894531 514.324219 326.457031 513.597656 C 326.023438 512.871094 325.519531 512.195312 324.949219 511.570312 C 324.378906 510.945312 323.753906 510.382812 323.074219 509.878906 C 322.390625 509.375 321.667969 508.945312 320.902344 508.585938 C 320.132812 508.230469 319.339844 507.949219 318.515625 507.746094 C 317.695312 507.546875 316.859375 507.425781 316.015625 507.390625 C 315.167969 507.355469 314.328125 507.402344 313.492188 507.53125 C 312.65625 507.664062 311.839844 507.875 311.046875 508.164062 C 310.25 508.457031 309.492188 508.824219 308.769531 509.265625 C 308.050781 509.707031 307.378906 510.21875 306.757812 510.792969 L 254.417969 558.289062 L 237.769531 541.640625 C 237.171875 541.054688 236.519531 540.535156 235.820312 540.074219 C 235.117188 539.617188 234.378906 539.230469 233.605469 538.917969 C 232.828125 538.601562 232.027344 538.367188 231.207031 538.210938 C 230.382812 538.050781 229.554688 537.976562 228.71875 537.980469 C 227.878906 537.984375 227.050781 538.070312 226.230469 538.238281 C 225.410156 538.402344 224.613281 538.648438 223.839844 538.972656 C 223.066406 539.292969 222.332031 539.6875 221.636719 540.15625 C 220.941406 540.621094 220.300781 541.148438 219.707031 541.742188 C 219.113281 542.335938 218.585938 542.976562 218.121094 543.671875 C 217.652344 544.367188 217.257812 545.101562 216.9375 545.875 C 216.613281 546.648438 216.371094 547.445312 216.203125 548.265625 C 216.035156 549.085938 215.949219 549.914062 215.945312 550.753906 C 215.941406 551.589844 216.015625 552.417969 216.175781 553.242188 C 216.332031 554.0625 216.566406 554.863281 216.882812 555.640625 C 217.195312 556.414062 217.582031 557.152344 218.039062 557.855469 C 218.5 558.554688 219.019531 559.207031 219.605469 559.804688 Z M 211.617188 166.664062 L 293.351562 166.664062 L 293.351562 218.285156 C 293.351562 218.855469 293.378906 219.425781 293.4375 219.996094 C 293.492188 220.5625 293.574219 221.128906 293.6875 221.6875 C 293.800781 222.25 293.9375 222.800781 294.105469 223.347656 C 294.269531 223.894531 294.460938 224.429688 294.679688 224.960938 C 294.898438 225.488281 295.144531 226.003906 295.414062 226.507812 C 295.683594 227.007812 295.976562 227.5 296.292969 227.972656 C 296.609375 228.449219 296.949219 228.90625 297.3125 229.347656 C 297.675781 229.789062 298.058594 230.210938 298.460938 230.617188 C 298.867188 231.019531 299.289062 231.402344 299.730469 231.765625 C 300.171875 232.128906 300.628906 232.46875 301.105469 232.785156 C 301.582031 233.101562 302.070312 233.394531 302.574219 233.664062 C 303.078125 233.933594 303.59375 234.179688 304.121094 234.398438 C 304.648438 234.617188 305.183594 234.808594 305.730469 234.976562 C 306.277344 235.140625 306.832031 235.28125 307.390625 235.390625 C 307.953125 235.503906 308.515625 235.585938 309.082031 235.644531 C 309.652344 235.699219 310.222656 235.726562 310.792969 235.726562 L 362.414062 235.726562 L 362.414062 363.304688 C 362.414062 363.570312 362.386719 363.832031 362.335938 364.09375 C 362.28125 364.355469 362.207031 364.605469 362.105469 364.851562 C 362.003906 365.097656 361.878906 365.332031 361.730469 365.550781 C 361.582031 365.773438 361.414062 365.976562 361.226562 366.164062 C 361.039062 366.351562 360.835938 366.519531 360.613281 366.667969 C 360.394531 366.816406 360.160156 366.941406 359.914062 367.042969 C 359.671875 367.144531 359.417969 367.222656 359.15625 367.273438 C 358.898438 367.324219 358.632812 367.351562 358.367188 367.351562 L 211.621094 367.351562 C 211.355469 367.351562 211.09375 367.324219 210.835938 367.273438 C 210.574219 367.222656 210.320312 367.144531 210.074219 367.042969 C 209.832031 366.941406 209.597656 366.816406 209.375 366.667969 C 209.15625 366.519531 208.953125 366.351562 208.765625 366.164062 C 208.578125 365.976562 208.410156 365.773438 208.261719 365.550781 C 208.113281 365.332031 207.988281 365.097656 207.886719 364.851562 C 207.785156 364.605469 207.707031 364.355469 207.65625 364.09375 C 207.605469 363.832031 207.578125 363.570312 207.578125 363.304688 L 207.578125 170.710938 C 207.578125 170.445312 207.605469 170.183594 207.65625 169.921875 C 207.707031 169.660156 207.785156 169.410156 207.886719 169.164062 C 207.988281 168.917969 208.113281 168.6875 208.261719 168.464844 C 208.410156 168.246094 208.578125 168.039062 208.765625 167.851562 C 208.953125 167.664062 209.15625 167.496094 209.378906 167.347656 C 209.597656 167.203125 209.832031 167.078125 210.074219 166.976562 C 210.320312 166.875 210.574219 166.796875 210.835938 166.742188 C 211.09375 166.691406 211.355469 166.664062 211.621094 166.664062 Z M 246.066406 266.703125 L 323.917969 266.703125 C 324.761719 266.703125 325.597656 266.621094 326.425781 266.457031 C 327.253906 266.292969 328.054688 266.046875 328.835938 265.726562 C 329.613281 265.402344 330.355469 265.007812 331.054688 264.539062 C 331.757812 264.070312 332.40625 263.539062 333.003906 262.941406 C 333.597656 262.34375 334.132812 261.695312 334.597656 260.996094 C 335.066406 260.292969 335.464844 259.554688 335.785156 258.773438 C 336.109375 257.996094 336.351562 257.191406 336.515625 256.367188 C 336.683594 255.539062 336.765625 254.703125 336.765625 253.859375 C 336.765625 253.015625 336.683594 252.179688 336.515625 251.355469 C 336.351562 250.527344 336.109375 249.722656 335.785156 248.945312 C 335.464844 248.164062 335.066406 247.425781 334.597656 246.722656 C 334.132812 246.023438 333.597656 245.375 333.003906 244.777344 C 332.40625 244.179688 331.757812 243.648438 331.054688 243.179688 C 330.355469 242.710938 329.613281 242.316406 328.835938 241.992188 C 328.054688 241.671875 327.253906 241.425781 326.425781 241.261719 C 325.597656 241.097656 324.761719 241.015625 323.917969 241.015625 L 246.058594 241.015625 C 245.214844 241.015625 244.382812 241.097656 243.554688 241.261719 C 242.726562 241.425781 241.921875 241.671875 241.144531 241.992188 C 240.367188 242.316406 239.625 242.710938 238.925781 243.179688 C 238.222656 243.648438 237.574219 244.179688 236.976562 244.777344 C 236.382812 245.375 235.847656 246.023438 235.378906 246.722656 C 234.910156 247.425781 234.515625 248.164062 234.191406 248.945312 C 233.871094 249.722656 233.625 250.527344 233.460938 251.355469 C 233.296875 252.179688 233.214844 253.015625 233.214844 253.859375 C 233.214844 254.703125 233.296875 255.539062 233.460938 256.367188 C 233.625 257.191406 233.871094 257.996094 234.191406 258.773438 C 234.515625 259.554688 234.910156 260.292969 235.378906 260.996094 C 235.847656 261.695312 236.382812 262.34375 236.976562 262.941406 C 237.574219 263.539062 238.222656 264.070312 238.925781 264.539062 C 239.625 265.007812 240.367188 265.402344 241.144531 265.726562 C 241.921875 266.046875 242.726562 266.292969 243.554688 266.457031 C 244.382812 266.621094 245.214844 266.703125 246.058594 266.703125 Z M 246.066406 305.644531 L 323.917969 305.644531 C 324.761719 305.644531 325.597656 305.5625 326.425781 305.398438 C 327.253906 305.234375 328.054688 304.992188 328.835938 304.667969 C 329.613281 304.34375 330.355469 303.949219 331.054688 303.480469 C 331.757812 303.011719 332.40625 302.480469 333.003906 301.882812 C 333.597656 301.289062 334.132812 300.640625 334.597656 299.9375 C 335.066406 299.234375 335.464844 298.496094 335.785156 297.71875 C 336.109375 296.9375 336.351562 296.132812 336.515625 295.308594 C 336.683594 294.480469 336.765625 293.644531 336.765625 292.800781 C 336.765625 291.957031 336.683594 291.121094 336.515625 290.296875 C 336.351562 289.46875 336.109375 288.664062 335.785156 287.886719 C 335.464844 287.105469 335.066406 286.367188 334.597656 285.664062 C 334.132812 284.964844 333.597656 284.316406 333.003906 283.71875 C 332.40625 283.121094 331.757812 282.589844 331.054688 282.121094 C 330.355469 281.652344 329.613281 281.257812 328.835938 280.933594 C 328.054688 280.613281 327.253906 280.367188 326.425781 280.203125 C 325.597656 280.039062 324.761719 279.957031 323.917969 279.957031 L 246.058594 279.957031 C 245.214844 279.957031 244.382812 280.039062 243.554688 280.203125 C 242.726562 280.367188 241.921875 280.613281 241.144531 280.933594 C 240.367188 281.257812 239.625 281.652344 238.925781 282.121094 C 238.222656 282.589844 237.574219 283.121094 236.976562 283.71875 C 236.382812 284.316406 235.847656 284.964844 235.378906 285.664062 C 234.910156 286.367188 234.515625 287.105469 234.191406 287.886719 C 233.871094 288.664062 233.625 289.46875 233.460938 290.296875 C 233.296875 291.121094 233.214844 291.957031 233.214844 292.800781 C 233.214844 293.644531 233.296875 294.480469 233.460938 295.308594 C 233.625 296.132812 233.871094 296.9375 234.191406 297.71875 C 234.515625 298.496094 234.910156 299.234375 235.378906 299.9375 C 235.847656 300.640625 236.382812 301.289062 236.976562 301.882812 C 237.574219 302.480469 238.222656 303.011719 238.925781 303.480469 C 239.625 303.949219 240.367188 304.34375 241.144531 304.667969 C 241.921875 304.992188 242.726562 305.234375 243.554688 305.398438 C 244.382812 305.5625 245.214844 305.644531 246.058594 305.644531 Z M 246.066406 344.589844 L 323.917969 344.589844 C 324.761719 344.585938 325.597656 344.503906 326.425781 344.339844 C 327.253906 344.175781 328.054688 343.933594 328.835938 343.609375 C 329.613281 343.289062 330.355469 342.890625 331.054688 342.421875 C 331.757812 341.953125 332.40625 341.421875 333.003906 340.824219 C 333.597656 340.230469 334.132812 339.582031 334.597656 338.878906 C 335.066406 338.179688 335.464844 337.4375 335.785156 336.660156 C 336.109375 335.878906 336.351562 335.078125 336.515625 334.25 C 336.683594 333.421875 336.765625 332.585938 336.765625 331.742188 C 336.765625 330.898438 336.683594 330.066406 336.515625 329.238281 C 336.351562 328.410156 336.109375 327.609375 335.785156 326.828125 C 335.464844 326.050781 335.066406 325.308594 334.597656 324.609375 C 334.132812 323.90625 333.597656 323.257812 333.003906 322.660156 C 332.40625 322.066406 331.757812 321.53125 331.054688 321.0625 C 330.355469 320.59375 329.613281 320.199219 328.835938 319.878906 C 328.054688 319.554688 327.253906 319.3125 326.425781 319.144531 C 325.597656 318.980469 324.761719 318.898438 323.917969 318.898438 L 246.058594 318.898438 C 245.214844 318.898438 244.382812 318.980469 243.554688 319.144531 C 242.726562 319.3125 241.921875 319.554688 241.144531 319.878906 C 240.367188 320.199219 239.625 320.59375 238.925781 321.0625 C 238.222656 321.53125 237.574219 322.066406 236.976562 322.660156 C 236.382812 323.257812 235.847656 323.90625 235.378906 324.609375 C 234.910156 325.308594 234.515625 326.050781 234.191406 326.828125 C 233.871094 327.609375 233.625 328.410156 233.460938 329.238281 C 233.296875 330.066406 233.214844 330.898438 233.214844 331.742188 C 233.214844 332.585938 233.296875 333.421875 233.460938 334.25 C 233.625 335.078125 233.871094 335.878906 234.191406 336.660156 C 234.515625 337.4375 234.910156 338.179688 235.378906 338.878906 C 235.847656 339.582031 236.382812 340.230469 236.976562 340.824219 C 237.574219 341.421875 238.222656 341.953125 238.925781 342.421875 C 239.625 342.890625 240.367188 343.289062 241.144531 343.609375 C 241.921875 343.933594 242.726562 344.175781 243.554688 344.339844 C 244.382812 344.503906 245.214844 344.585938 246.058594 344.589844 Z M 319.039062 178.71875 L 319.039062 210.042969 L 350.367188 210.042969 Z M 692.453125 710.101562 L 715.796875 686.179688 C 716.1875 685.769531 716.539062 685.328125 716.847656 684.851562 C 717.152344 684.375 717.410156 683.875 717.621094 683.347656 C 717.828125 682.820312 717.984375 682.277344 718.085938 681.71875 C 718.1875 681.164062 718.234375 680.601562 718.226562 680.035156 C 718.214844 679.46875 718.152344 678.90625 718.035156 678.351562 C 717.914062 677.796875 717.742188 677.261719 717.519531 676.738281 C 717.296875 676.21875 717.023438 675.726562 716.703125 675.257812 C 716.378906 674.792969 716.015625 674.359375 715.609375 673.964844 L 663.429688 623.339844 C 663.035156 622.960938 662.609375 622.621094 662.148438 622.320312 C 661.6875 622.019531 661.203125 621.765625 660.695312 621.558594 C 660.1875 621.351562 659.664062 621.191406 659.125 621.085938 C 658.585938 620.976562 658.042969 620.921875 657.492188 620.914062 C 656.941406 620.910156 656.398438 620.957031 655.859375 621.054688 C 655.316406 621.15625 654.792969 621.304688 654.28125 621.503906 C 653.765625 621.703125 653.277344 621.945312 652.8125 622.238281 C 652.347656 622.53125 651.914062 622.863281 651.511719 623.238281 L 619.8125 592.449219 C 620.808594 590.855469 621.753906 589.230469 622.648438 587.578125 C 623.546875 585.921875 624.386719 584.246094 625.179688 582.539062 C 625.972656 580.832031 626.710938 579.105469 627.394531 577.355469 C 628.078125 575.605469 628.710938 573.832031 629.285156 572.042969 C 629.859375 570.253906 630.378906 568.449219 630.84375 566.625 C 631.308594 564.804688 631.714844 562.96875 632.066406 561.121094 C 632.414062 559.273438 632.707031 557.417969 632.945312 555.554688 C 633.179688 553.6875 633.359375 551.816406 633.476562 549.941406 C 633.597656 548.066406 633.660156 546.1875 633.664062 544.308594 C 633.667969 542.425781 633.613281 540.546875 633.503906 538.671875 C 633.390625 536.796875 633.222656 534.921875 632.992188 533.058594 C 632.765625 531.191406 632.480469 529.332031 632.140625 527.484375 C 631.796875 525.636719 631.398438 523.800781 630.941406 521.976562 C 630.484375 520.152344 629.976562 518.34375 629.40625 516.550781 C 628.839844 514.757812 628.21875 512.984375 627.539062 511.230469 C 626.863281 509.476562 626.132812 507.746094 625.347656 506.039062 C 624.566406 504.328125 623.730469 502.644531 622.839844 500.988281 C 621.953125 499.332031 621.015625 497.703125 620.027344 496.105469 C 619.039062 494.503906 618 492.9375 616.917969 491.402344 C 615.832031 489.867188 614.699219 488.367188 613.519531 486.902344 C 612.34375 485.4375 611.121094 484.007812 609.855469 482.621094 C 608.589844 481.230469 607.28125 479.878906 605.929688 478.570312 C 604.582031 477.261719 603.191406 475.996094 601.765625 474.773438 C 600.335938 473.550781 598.875 472.371094 597.371094 471.238281 C 595.871094 470.105469 594.339844 469.019531 592.769531 467.984375 C 591.203125 466.945312 589.605469 465.957031 587.976562 465.019531 C 586.347656 464.078125 584.691406 463.191406 583.007812 462.355469 C 581.324219 461.515625 579.617188 460.734375 577.886719 460 C 576.152344 459.269531 574.398438 458.59375 572.625 457.96875 C 570.851562 457.347656 569.0625 456.777344 567.253906 456.265625 C 565.441406 455.753906 563.621094 455.296875 561.78125 454.898438 C 559.945312 454.5 558.097656 454.15625 556.238281 453.871094 C 554.382812 453.585938 552.515625 453.355469 550.644531 453.1875 C 548.773438 453.015625 546.894531 452.902344 545.015625 452.847656 C 543.136719 452.792969 541.257812 452.796875 539.378906 452.859375 C 537.5 452.921875 535.625 453.039062 533.753906 453.21875 C 531.882812 453.394531 530.015625 453.628906 528.160156 453.921875 C 526.304688 454.214844 524.457031 454.566406 522.621094 454.972656 C 520.785156 455.378906 518.964844 455.839844 517.15625 456.359375 C 515.351562 456.878906 513.5625 457.453125 511.789062 458.082031 C 510.019531 458.714844 508.269531 459.398438 506.539062 460.136719 C 504.808594 460.871094 503.105469 461.664062 501.425781 462.507812 C 499.742188 463.351562 498.089844 464.246094 496.464844 465.191406 C 494.839844 466.136719 493.246094 467.128906 491.683594 468.171875 C 490.117188 469.21875 488.589844 470.308594 487.09375 471.445312 C 485.597656 472.585938 484.136719 473.769531 482.714844 474.996094 C 481.289062 476.226562 479.90625 477.496094 478.5625 478.808594 C 477.21875 480.125 475.914062 481.480469 474.652344 482.875 C 473.390625 484.269531 472.175781 485.699219 471.003906 487.167969 C 469.832031 488.640625 468.703125 490.144531 467.625 491.683594 C 466.546875 493.222656 465.515625 494.792969 464.53125 496.394531 C 463.550781 498 462.617188 499.628906 461.734375 501.292969 C 460.855469 502.953125 460.023438 504.636719 459.246094 506.351562 C 458.46875 508.0625 457.746094 509.796875 457.074219 511.550781 C 456.40625 513.308594 455.789062 515.082031 455.230469 516.878906 C 454.667969 518.671875 454.164062 520.484375 453.714844 522.308594 C 453.265625 524.132812 452.875 525.972656 452.539062 527.820312 C 452.203125 529.671875 451.925781 531.53125 451.703125 533.398438 C 451.484375 535.265625 451.320312 537.136719 451.214844 539.015625 C 451.113281 540.890625 451.066406 542.769531 451.074219 544.648438 C 451.085938 546.53125 451.15625 548.40625 451.285156 550.285156 C 451.410156 552.160156 451.597656 554.03125 451.839844 555.894531 C 452.082031 557.757812 452.382812 559.613281 452.738281 561.457031 C 453.097656 563.304688 453.511719 565.136719 453.980469 566.957031 C 454.453125 568.777344 454.976562 570.582031 455.558594 572.371094 C 456.140625 574.15625 456.777344 575.925781 457.46875 577.671875 C 458.160156 579.421875 458.90625 581.148438 459.703125 582.851562 C 460.5 584.550781 461.351562 586.226562 462.253906 587.878906 C 463.152344 589.527344 464.105469 591.148438 465.105469 592.738281 C 466.109375 594.332031 467.160156 595.890625 468.257812 597.414062 C 469.355469 598.941406 470.496094 600.433594 471.6875 601.886719 C 472.878906 603.34375 474.113281 604.761719 475.390625 606.140625 C 476.667969 607.519531 477.984375 608.859375 479.34375 610.15625 C 480.707031 611.453125 482.105469 612.710938 483.542969 613.921875 C 484.980469 615.132812 486.453125 616.296875 487.964844 617.417969 C 489.472656 618.539062 491.015625 619.613281 492.59375 620.636719 C 494.167969 621.660156 495.773438 622.636719 497.410156 623.5625 C 499.046875 624.488281 500.710938 625.363281 502.402344 626.1875 C 504.089844 627.007812 505.804688 627.78125 507.542969 628.496094 C 509.28125 629.214844 511.039062 629.875 512.820312 630.484375 C 514.597656 631.09375 516.394531 631.648438 518.207031 632.144531 C 520.019531 632.640625 521.847656 633.082031 523.6875 633.46875 C 525.527344 633.851562 527.375 634.179688 529.238281 634.449219 C 531.097656 634.722656 532.964844 634.933594 534.839844 635.089844 C 536.710938 635.242188 538.589844 635.339844 540.46875 635.378906 C 542.347656 635.417969 544.226562 635.402344 546.105469 635.324219 C 547.984375 635.246094 549.859375 635.113281 551.730469 634.917969 C 553.597656 634.726562 555.460938 634.476562 557.316406 634.167969 C 559.171875 633.859375 561.015625 633.496094 562.847656 633.074219 C 564.679688 632.652344 566.496094 632.175781 568.296875 631.640625 C 570.101562 631.105469 571.886719 630.515625 573.652344 629.875 C 575.417969 629.230469 577.164062 628.53125 578.886719 627.777344 C 580.609375 627.027344 582.308594 626.222656 583.980469 625.367188 C 585.65625 624.507812 587.300781 623.601562 588.917969 622.640625 C 590.535156 621.683594 592.121094 620.675781 593.675781 619.621094 C 595.230469 618.5625 596.75 617.460938 598.238281 616.308594 L 629.050781 646.238281 L 627.875 647.441406 C 627.484375 647.847656 627.132812 648.292969 626.824219 648.769531 C 626.519531 649.246094 626.261719 649.746094 626.050781 650.273438 C 625.84375 650.800781 625.6875 651.34375 625.585938 651.898438 C 625.484375 652.457031 625.4375 653.019531 625.445312 653.585938 C 625.457031 654.152344 625.519531 654.714844 625.636719 655.269531 C 625.757812 655.820312 625.929688 656.359375 626.152344 656.878906 C 626.375 657.402344 626.648438 657.894531 626.96875 658.359375 C 627.292969 658.828125 627.65625 659.257812 628.0625 659.65625 L 680.230469 710.277344 C 680.640625 710.671875 681.082031 711.023438 681.558594 711.328125 C 682.035156 711.632812 682.535156 711.890625 683.0625 712.097656 C 683.589844 712.308594 684.132812 712.460938 684.691406 712.5625 C 685.246094 712.664062 685.808594 712.710938 686.375 712.703125 C 686.941406 712.695312 687.503906 712.632812 688.054688 712.511719 C 688.609375 712.394531 689.148438 712.222656 689.667969 712 C 690.1875 711.777344 690.683594 711.503906 691.148438 711.183594 C 691.617188 710.863281 692.046875 710.5 692.445312 710.097656 Z M 542.390625 478.582031 C 543.460938 478.582031 544.535156 478.609375 545.605469 478.664062 C 546.675781 478.714844 547.746094 478.792969 548.816406 478.898438 C 549.882812 479.003906 550.949219 479.136719 552.007812 479.292969 C 553.070312 479.449219 554.128906 479.632812 555.179688 479.84375 C 556.234375 480.050781 557.277344 480.289062 558.320312 480.546875 C 559.359375 480.808594 560.394531 481.09375 561.421875 481.40625 C 562.449219 481.71875 563.46875 482.054688 564.476562 482.414062 C 565.488281 482.777344 566.488281 483.164062 567.480469 483.574219 C 568.472656 483.984375 569.453125 484.417969 570.421875 484.878906 C 571.390625 485.335938 572.351562 485.820312 573.296875 486.324219 C 574.242188 486.832031 575.175781 487.359375 576.097656 487.910156 C 577.015625 488.460938 577.921875 489.035156 578.816406 489.632812 C 579.707031 490.230469 580.585938 490.847656 581.445312 491.484375 C 582.308594 492.125 583.152344 492.785156 583.984375 493.464844 C 584.8125 494.144531 585.625 494.847656 586.421875 495.566406 C 587.214844 496.289062 587.992188 497.027344 588.75 497.785156 C 589.507812 498.542969 590.25 499.320312 590.96875 500.117188 C 591.691406 500.910156 592.390625 501.722656 593.070312 502.554688 C 593.753906 503.382812 594.414062 504.230469 595.050781 505.089844 C 595.691406 505.953125 596.308594 506.828125 596.90625 507.722656 C 597.5 508.613281 598.074219 509.519531 598.625 510.441406 C 599.179688 511.359375 599.707031 512.292969 600.214844 513.242188 C 600.71875 514.1875 601.199219 515.144531 601.660156 516.113281 C 602.117188 517.085938 602.554688 518.066406 602.964844 519.058594 C 603.375 520.046875 603.761719 521.050781 604.121094 522.058594 C 604.484375 523.070312 604.820312 524.089844 605.132812 525.113281 C 605.441406 526.140625 605.730469 527.175781 605.988281 528.214844 C 606.25 529.257812 606.484375 530.304688 606.695312 531.355469 C 606.90625 532.410156 607.089844 533.464844 607.246094 534.527344 C 607.402344 535.589844 607.535156 536.652344 607.640625 537.722656 C 607.746094 538.789062 607.824219 539.859375 607.875 540.929688 C 607.929688 542.003906 607.957031 543.074219 607.957031 544.148438 C 607.957031 545.21875 607.929688 546.292969 607.875 547.363281 C 607.824219 548.4375 607.746094 549.507812 607.640625 550.574219 C 607.535156 551.640625 607.402344 552.707031 607.246094 553.769531 C 607.089844 554.828125 606.90625 555.886719 606.695312 556.9375 C 606.484375 557.992188 606.25 559.039062 605.992188 560.078125 C 605.730469 561.121094 605.445312 562.152344 605.132812 563.179688 C 604.820312 564.207031 604.484375 565.226562 604.121094 566.234375 C 603.761719 567.246094 603.375 568.246094 602.964844 569.238281 C 602.554688 570.230469 602.121094 571.210938 601.660156 572.179688 C 601.203125 573.152344 600.71875 574.109375 600.214844 575.054688 C 599.707031 576 599.179688 576.933594 598.628906 577.855469 C 598.074219 578.777344 597.503906 579.683594 596.90625 580.574219 C 596.308594 581.464844 595.691406 582.34375 595.054688 583.203125 C 594.414062 584.066406 593.753906 584.914062 593.074219 585.742188 C 592.390625 586.570312 591.691406 587.382812 590.972656 588.179688 C 590.25 588.972656 589.511719 589.75 588.753906 590.507812 C 587.992188 591.269531 587.214844 592.007812 586.421875 592.730469 C 585.625 593.449219 584.8125 594.148438 583.984375 594.832031 C 583.15625 595.511719 582.308594 596.171875 581.449219 596.808594 C 580.585938 597.449219 579.707031 598.066406 578.816406 598.664062 C 577.925781 599.257812 577.019531 599.832031 576.097656 600.386719 C 575.175781 600.9375 574.242188 601.464844 573.296875 601.972656 C 572.351562 602.476562 571.394531 602.960938 570.421875 603.417969 C 569.453125 603.878906 568.472656 604.3125 567.480469 604.722656 C 566.488281 605.132812 565.488281 605.519531 564.480469 605.878906 C 563.46875 606.242188 562.449219 606.578125 561.421875 606.890625 C 560.394531 607.203125 559.363281 607.488281 558.320312 607.75 C 557.28125 608.007812 556.234375 608.246094 555.179688 608.453125 C 554.128906 608.664062 553.070312 608.847656 552.011719 609.003906 C 550.949219 609.160156 549.886719 609.292969 548.816406 609.398438 C 547.75 609.503906 546.679688 609.582031 545.609375 609.632812 C 544.535156 609.6875 543.464844 609.714844 542.390625 609.714844 C 541.316406 609.714844 540.246094 609.6875 539.171875 609.632812 C 538.101562 609.582031 537.03125 609.503906 535.964844 609.398438 C 534.894531 609.292969 533.832031 609.160156 532.769531 609.003906 C 531.707031 608.847656 530.652344 608.664062 529.597656 608.453125 C 528.546875 608.246094 527.5 608.007812 526.460938 607.75 C 525.417969 607.488281 524.386719 607.203125 523.359375 606.890625 C 522.332031 606.578125 521.3125 606.242188 520.300781 605.882812 C 519.292969 605.519531 518.292969 605.132812 517.300781 604.722656 C 516.308594 604.3125 515.328125 603.878906 514.359375 603.417969 C 513.386719 602.960938 512.429688 602.476562 511.484375 601.972656 C 510.535156 601.464844 509.605469 600.9375 508.683594 600.386719 C 507.761719 599.832031 506.855469 599.261719 505.964844 598.664062 C 505.074219 598.066406 504.195312 597.449219 503.332031 596.8125 C 502.472656 596.171875 501.625 595.511719 500.796875 594.832031 C 499.96875 594.148438 499.15625 593.449219 498.359375 592.730469 C 497.566406 592.007812 496.789062 591.269531 496.027344 590.511719 C 495.269531 589.75 494.53125 588.972656 493.808594 588.179688 C 493.089844 587.382812 492.390625 586.570312 491.707031 585.742188 C 491.027344 584.914062 490.367188 584.066406 489.726562 583.207031 C 489.089844 582.34375 488.472656 581.464844 487.875 580.574219 C 487.277344 579.683594 486.707031 578.777344 486.152344 577.855469 C 485.601562 576.933594 485.074219 576.003906 484.566406 575.054688 C 484.0625 574.109375 483.578125 573.152344 483.121094 572.179688 C 482.660156 571.210938 482.226562 570.230469 481.816406 569.238281 C 481.40625 568.246094 481.019531 567.246094 480.65625 566.238281 C 480.296875 565.226562 479.960938 564.207031 479.648438 563.179688 C 479.335938 562.15625 479.050781 561.121094 478.789062 560.078125 C 478.53125 559.039062 478.292969 557.992188 478.085938 556.941406 C 477.875 555.886719 477.691406 554.832031 477.535156 553.769531 C 477.378906 552.707031 477.246094 551.644531 477.140625 550.574219 C 477.035156 549.507812 476.957031 548.4375 476.90625 547.367188 C 476.851562 546.292969 476.824219 545.222656 476.824219 544.148438 C 476.824219 543.074219 476.851562 542.003906 476.902344 540.929688 C 476.957031 539.859375 477.035156 538.789062 477.140625 537.722656 C 477.246094 536.652344 477.378906 535.589844 477.535156 534.527344 C 477.691406 533.464844 477.875 532.410156 478.085938 531.355469 C 478.292969 530.304688 478.527344 529.257812 478.789062 528.21875 C 479.050781 527.175781 479.335938 526.140625 479.648438 525.117188 C 479.960938 524.089844 480.296875 523.070312 480.65625 522.058594 C 481.019531 521.050781 481.40625 520.050781 481.816406 519.058594 C 482.226562 518.066406 482.660156 517.085938 483.117188 516.117188 C 483.578125 515.144531 484.058594 514.1875 484.566406 513.242188 C 485.070312 512.292969 485.601562 511.359375 486.152344 510.441406 C 486.703125 509.519531 487.277344 508.613281 487.875 507.722656 C 488.46875 506.828125 489.085938 505.953125 489.726562 505.089844 C 490.367188 504.230469 491.023438 503.382812 491.707031 502.554688 C 492.386719 501.722656 493.085938 500.910156 493.808594 500.117188 C 494.527344 499.320312 495.269531 498.546875 496.027344 497.785156 C 496.785156 497.027344 497.5625 496.289062 498.359375 495.566406 C 499.152344 494.847656 499.964844 494.144531 500.792969 493.464844 C 501.625 492.785156 502.46875 492.125 503.332031 491.484375 C 504.191406 490.847656 505.070312 490.226562 505.960938 489.632812 C 506.855469 489.035156 507.761719 488.460938 508.679688 487.910156 C 509.601562 487.359375 510.535156 486.832031 511.480469 486.324219 C 512.429688 485.820312 513.386719 485.335938 514.355469 484.878906 C 515.324219 484.417969 516.304688 483.984375 517.296875 483.574219 C 518.289062 483.164062 519.289062 482.777344 520.300781 482.414062 C 521.3125 482.054688 522.328125 481.71875 523.355469 481.40625 C 524.382812 481.09375 525.417969 480.808594 526.457031 480.546875 C 527.5 480.289062 528.546875 480.050781 529.597656 479.84375 C 530.648438 479.632812 531.707031 479.449219 532.769531 479.292969 C 533.828125 479.136719 534.894531 479.003906 535.960938 478.898438 C 537.03125 478.792969 538.101562 478.714844 539.171875 478.664062 C 540.242188 478.609375 541.316406 478.582031 542.390625 478.582031 Z M 500.671875 78.042969 C 499.859375 77.828125 499.074219 77.53125 498.320312 77.160156 C 497.5625 76.789062 496.851562 76.347656 496.183594 75.835938 C 495.511719 75.320312 494.902344 74.75 494.347656 74.117188 C 493.789062 73.484375 493.300781 72.800781 492.878906 72.074219 C 492.457031 71.34375 492.113281 70.582031 491.839844 69.785156 C 491.570312 68.988281 491.378906 68.171875 491.269531 67.335938 C 491.15625 66.5 491.128906 65.664062 491.183594 64.820312 C 491.238281 63.980469 491.375 63.15625 491.589844 62.339844 C 491.808594 61.527344 492.105469 60.742188 492.476562 59.988281 C 492.847656 59.230469 493.289062 58.519531 493.800781 57.851562 C 494.3125 57.183594 494.886719 56.570312 495.519531 56.015625 C 496.152344 55.457031 496.832031 54.96875 497.5625 54.546875 C 498.292969 54.125 499.054688 53.78125 499.851562 53.507812 C 500.648438 53.238281 501.464844 53.046875 502.300781 52.9375 C 503.136719 52.824219 503.972656 52.796875 504.8125 52.851562 C 505.65625 52.90625 506.480469 53.042969 507.296875 53.261719 C 511.539062 54.394531 515.757812 55.609375 519.957031 56.894531 C 524.15625 58.179688 528.332031 59.542969 532.484375 60.976562 C 536.632812 62.410156 540.757812 63.921875 544.855469 65.503906 C 548.953125 67.085938 553.019531 68.738281 557.058594 70.464844 C 561.097656 72.191406 565.101562 73.992188 569.078125 75.859375 C 573.050781 77.730469 576.992188 79.671875 580.894531 81.679688 C 584.800781 83.691406 588.667969 85.769531 592.5 87.914062 C 596.332031 90.0625 600.125 92.277344 603.875 94.5625 C 607.628906 96.84375 611.339844 99.191406 615.007812 101.605469 C 618.675781 104.023438 622.300781 106.5 625.878906 109.042969 C 629.460938 111.589844 632.996094 114.195312 636.480469 116.863281 C 639.96875 119.535156 643.410156 122.265625 646.796875 125.058594 C 650.1875 127.847656 653.527344 130.699219 656.816406 133.613281 C 660.105469 136.523438 663.339844 139.492188 666.523438 142.519531 C 669.707031 145.542969 672.835938 148.625 675.910156 151.761719 C 678.984375 154.902344 682 158.09375 684.957031 161.335938 C 687.917969 164.582031 690.820312 167.878906 693.660156 171.226562 C 696.503906 174.574219 699.285156 177.972656 702.007812 181.421875 C 704.726562 184.867188 707.386719 188.363281 709.984375 191.90625 C 712.582031 195.445312 715.113281 199.035156 717.582031 202.664062 C 720.050781 206.296875 722.457031 209.972656 724.792969 213.691406 C 727.132812 217.410156 729.402344 221.167969 731.609375 224.964844 C 733.8125 228.765625 735.949219 232.601562 738.015625 236.476562 C 740.085938 240.351562 742.082031 244.261719 744.011719 248.207031 C 745.941406 252.152344 747.796875 256.132812 749.585938 260.144531 C 751.371094 264.15625 753.085938 268.199219 754.730469 272.269531 C 756.371094 276.34375 757.941406 280.445312 759.4375 284.574219 C 760.9375 288.703125 762.359375 292.859375 763.707031 297.039062 C 765.058594 301.21875 766.332031 305.417969 767.53125 309.644531 C 768.730469 313.871094 769.851562 318.113281 770.902344 322.378906 C 771.949219 326.644531 772.921875 330.925781 773.816406 335.226562 C 774.714844 339.527344 775.53125 343.839844 776.273438 348.167969 L 785.246094 328.765625 C 785.59375 327.996094 786.015625 327.269531 786.507812 326.582031 C 787 325.894531 787.554688 325.265625 788.171875 324.6875 C 788.792969 324.109375 789.460938 323.601562 790.179688 323.15625 C 790.898438 322.710938 791.652344 322.339844 792.445312 322.046875 C 793.238281 321.75 794.050781 321.535156 794.886719 321.402344 C 795.71875 321.269531 796.558594 321.21875 797.402344 321.25 C 798.25 321.28125 799.082031 321.394531 799.902344 321.59375 C 800.726562 321.789062 801.519531 322.0625 802.289062 322.417969 C 803.054688 322.773438 803.78125 323.199219 804.464844 323.695312 C 805.148438 324.191406 805.777344 324.753906 806.347656 325.375 C 806.921875 325.996094 807.425781 326.667969 807.867188 327.390625 C 808.304688 328.109375 808.671875 328.867188 808.960938 329.664062 C 809.25 330.457031 809.460938 331.273438 809.589844 332.105469 C 809.71875 332.941406 809.761719 333.78125 809.726562 334.625 C 809.6875 335.472656 809.566406 336.304688 809.367188 337.125 C 809.164062 337.945312 808.882812 338.738281 808.523438 339.503906 L 780.082031 401.023438 C 779.859375 401.503906 779.605469 401.972656 779.328125 402.421875 C 779.046875 402.875 778.738281 403.304688 778.402344 403.71875 C 778.066406 404.128906 777.710938 404.519531 777.328125 404.886719 C 776.945312 405.253906 776.539062 405.597656 776.113281 405.914062 C 775.6875 406.234375 775.246094 406.523438 774.78125 406.785156 C 774.320312 407.046875 773.84375 407.28125 773.355469 407.484375 C 772.863281 407.6875 772.363281 407.859375 771.851562 408.003906 C 771.339844 408.144531 770.820312 408.253906 770.292969 408.328125 C 769.769531 408.40625 769.242188 408.449219 768.710938 408.460938 C 768.179688 408.472656 767.648438 408.453125 767.121094 408.398438 C 766.59375 408.34375 766.070312 408.253906 765.554688 408.136719 C 765.035156 408.015625 764.527344 407.867188 764.027344 407.683594 C 763.53125 407.5 763.042969 407.289062 762.570312 407.046875 C 762.101562 406.800781 761.644531 406.53125 761.207031 406.230469 C 760.765625 405.933594 760.347656 405.605469 759.949219 405.253906 C 759.550781 404.90625 759.175781 404.53125 758.824219 404.132812 L 717.214844 359.558594 C 716.640625 358.945312 716.132812 358.277344 715.691406 357.5625 C 715.25 356.84375 714.878906 356.09375 714.585938 355.304688 C 714.292969 354.515625 714.078125 353.707031 713.945312 352.875 C 713.808594 352.042969 713.757812 351.207031 713.789062 350.367188 C 713.820312 349.527344 713.929688 348.695312 714.125 347.878906 C 714.316406 347.058594 714.589844 346.265625 714.941406 345.5 C 715.289062 344.738281 715.710938 344.011719 716.203125 343.332031 C 716.695312 342.648438 717.25 342.019531 717.867188 341.445312 C 718.480469 340.875 719.148438 340.367188 719.863281 339.921875 C 720.578125 339.480469 721.332031 339.113281 722.121094 338.820312 C 722.910156 338.527344 723.71875 338.3125 724.550781 338.179688 C 725.378906 338.042969 726.214844 337.992188 727.058594 338.023438 C 727.898438 338.050781 728.726562 338.164062 729.546875 338.359375 C 730.367188 338.550781 731.15625 338.824219 731.921875 339.171875 C 732.6875 339.523438 733.414062 339.945312 734.09375 340.4375 C 734.777344 340.929688 735.40625 341.484375 735.980469 342.097656 L 752.078125 359.34375 C 751.457031 355.230469 750.765625 351.128906 749.996094 347.042969 C 749.226562 342.953125 748.386719 338.882812 747.46875 334.824219 C 746.554688 330.765625 745.566406 326.726562 744.503906 322.707031 C 743.441406 318.683594 742.304688 314.683594 741.097656 310.703125 C 739.890625 306.722656 738.613281 302.765625 737.261719 298.832031 C 735.910156 294.898438 734.488281 290.988281 732.996094 287.105469 C 731.503906 283.222656 729.941406 279.367188 728.308594 275.542969 C 726.679688 271.71875 724.976562 267.921875 723.207031 264.15625 C 721.4375 260.394531 719.601562 256.660156 717.695312 252.964844 C 715.792969 249.265625 713.820312 245.605469 711.785156 241.976562 C 709.746094 238.351562 707.644531 234.761719 705.476562 231.214844 C 703.308594 227.664062 701.078125 224.152344 698.78125 220.683594 C 696.488281 217.214844 694.128906 213.789062 691.710938 210.40625 C 689.292969 207.019531 686.8125 203.683594 684.273438 200.386719 C 681.734375 197.09375 679.136719 193.847656 676.476562 190.648438 C 673.820312 187.449219 671.105469 184.296875 668.332031 181.195312 C 665.5625 178.09375 662.734375 175.042969 659.851562 172.042969 C 656.96875 169.046875 654.035156 166.101562 651.042969 163.207031 C 648.054688 160.316406 645.015625 157.476562 641.921875 154.695312 C 638.832031 151.914062 635.691406 149.1875 632.5 146.519531 C 629.308594 143.851562 626.070312 141.242188 622.785156 138.691406 C 619.5 136.136719 616.167969 133.648438 612.792969 131.21875 C 609.417969 128.785156 606 126.417969 602.539062 124.113281 C 599.078125 121.804688 595.574219 119.5625 592.03125 117.382812 C 588.488281 115.203125 584.90625 113.089844 581.289062 111.039062 C 577.667969 108.988281 574.015625 107.003906 570.324219 105.085938 C 566.632812 103.171875 562.90625 101.320312 559.148438 99.539062 C 555.390625 97.753906 551.601562 96.042969 547.78125 94.398438 C 543.960938 92.753906 540.109375 91.175781 536.234375 89.671875 C 532.355469 88.164062 528.453125 86.730469 524.523438 85.367188 C 520.59375 84.003906 516.640625 82.710938 512.664062 81.488281 C 508.6875 80.269531 504.691406 79.121094 500.671875 78.042969 Z M 108.019531 423.4375 C 107.175781 423.4375 106.339844 423.355469 105.511719 423.191406 C 104.683594 423.027344 103.882812 422.785156 103.101562 422.460938 C 102.324219 422.136719 101.582031 421.742188 100.882812 421.273438 C 100.179688 420.804688 99.53125 420.273438 98.9375 419.675781 C 98.339844 419.082031 97.808594 418.429688 97.339844 417.730469 C 96.871094 417.027344 96.472656 416.289062 96.152344 415.507812 C 95.828125 414.730469 95.585938 413.925781 95.421875 413.101562 C 95.257812 412.273438 95.175781 411.4375 95.175781 410.59375 C 95.175781 409.75 95.257812 408.914062 95.421875 408.089844 C 95.585938 407.261719 95.828125 406.457031 96.152344 405.679688 C 96.472656 404.898438 96.871094 404.160156 97.339844 403.457031 C 97.808594 402.757812 98.339844 402.109375 98.9375 401.511719 C 99.53125 400.914062 100.179688 400.382812 100.882812 399.914062 C 101.582031 399.445312 102.324219 399.050781 103.101562 398.726562 C 103.882812 398.40625 104.683594 398.160156 105.511719 397.996094 C 106.339844 397.832031 107.175781 397.75 108.019531 397.75 L 398.714844 397.75 L 398.714844 107.054688 C 398.714844 106.210938 398.796875 105.375 398.960938 104.550781 C 399.125 103.722656 399.367188 102.917969 399.691406 102.140625 C 400.015625 101.359375 400.410156 100.621094 400.878906 99.917969 C 401.347656 99.21875 401.878906 98.570312 402.476562 97.972656 C 403.070312 97.375 403.71875 96.84375 404.421875 96.375 C 405.121094 95.90625 405.863281 95.511719 406.640625 95.1875 C 407.421875 94.867188 408.226562 94.621094 409.050781 94.457031 C 409.878906 94.292969 410.714844 94.210938 411.558594 94.210938 C 412.402344 94.210938 413.234375 94.292969 414.0625 94.457031 C 414.890625 94.621094 415.695312 94.867188 416.472656 95.1875 C 417.253906 95.511719 417.992188 95.90625 418.695312 96.375 C 419.394531 96.84375 420.042969 97.375 420.640625 97.972656 C 421.234375 98.570312 421.769531 99.21875 422.238281 99.917969 C 422.707031 100.621094 423.101562 101.359375 423.425781 102.140625 C 423.746094 102.917969 423.992188 103.722656 424.15625 104.550781 C 424.320312 105.375 424.402344 106.210938 424.402344 107.054688 L 424.402344 397.75 L 715.097656 397.75 C 715.941406 397.75 716.777344 397.832031 717.601562 397.996094 C 718.429688 398.160156 719.234375 398.40625 720.011719 398.726562 C 720.792969 399.050781 721.53125 399.445312 722.234375 399.914062 C 722.933594 400.382812 723.582031 400.914062 724.179688 401.511719 C 724.777344 402.109375 725.308594 402.757812 725.777344 403.457031 C 726.246094 404.160156 726.640625 404.898438 726.964844 405.679688 C 727.285156 406.457031 727.53125 407.261719 727.695312 408.089844 C 727.859375 408.914062 727.941406 409.75 727.941406 410.59375 C 727.941406 411.4375 727.859375 412.273438 727.695312 413.101562 C 727.53125 413.925781 727.285156 414.730469 726.964844 415.507812 C 726.640625 416.289062 726.246094 417.027344 725.777344 417.730469 C 725.308594 418.429688 724.777344 419.082031 724.179688 419.675781 C 723.582031 420.273438 722.933594 420.804688 722.234375 421.273438 C 721.53125 421.742188 720.792969 422.136719 720.011719 422.460938 C 719.234375 422.785156 718.429688 423.027344 717.601562 423.191406 C 716.777344 423.355469 715.941406 423.4375 715.097656 423.4375 L 424.402344 423.4375 L 424.402344 714.132812 C 424.402344 714.976562 424.320312 715.8125 424.15625 716.640625 C 423.992188 717.464844 423.746094 718.269531 423.425781 719.050781 C 423.101562 719.828125 422.707031 720.566406 422.238281 721.269531 C 421.769531 721.972656 421.234375 722.621094 420.640625 723.214844 C 420.042969 723.8125 419.394531 724.34375 418.695312 724.8125 C 417.992188 725.28125 417.253906 725.675781 416.472656 726 C 415.695312 726.324219 414.890625 726.566406 414.0625 726.730469 C 413.234375 726.894531 412.402344 726.976562 411.558594 726.976562 C 410.714844 726.976562 409.878906 726.894531 409.050781 726.730469 C 408.226562 726.566406 407.421875 726.324219 406.640625 726 C 405.863281 725.675781 405.121094 725.28125 404.421875 724.8125 C 403.71875 724.34375 403.070312 723.8125 402.476562 723.214844 C 401.878906 722.621094 401.347656 721.972656 400.878906 721.269531 C 400.410156 720.566406 400.015625 719.828125 399.691406 719.050781 C 399.367188 718.269531 399.125 717.464844 398.960938 716.640625 C 398.796875 715.8125 398.714844 714.976562 398.714844 714.132812 L 398.714844 423.4375 Z M 493.386719 784.28125 C 494.144531 784.636719 494.859375 785.0625 495.535156 785.558594 C 496.210938 786.054688 496.832031 786.613281 497.398438 787.230469 C 497.960938 787.851562 498.464844 788.519531 498.898438 789.234375 C 499.332031 789.949219 499.695312 790.703125 499.980469 791.488281 C 500.269531 792.277344 500.476562 793.085938 500.605469 793.914062 C 500.734375 794.742188 500.78125 795.574219 500.746094 796.410156 C 500.714844 797.25 500.597656 798.074219 500.402344 798.890625 C 500.203125 799.703125 499.929688 800.492188 499.582031 801.253906 C 499.230469 802.015625 498.808594 802.734375 498.316406 803.414062 C 497.824219 804.089844 497.269531 804.714844 496.65625 805.285156 C 496.039062 805.855469 495.375 806.359375 494.664062 806.800781 C 493.949219 807.238281 493.199219 807.605469 492.414062 807.898438 C 491.628906 808.191406 490.824219 808.402344 489.996094 808.539062 C 489.167969 808.671875 488.335938 808.726562 487.5 808.695312 C 486.660156 808.667969 485.832031 808.558594 485.019531 808.367188 C 484.203125 808.175781 483.414062 807.90625 482.648438 807.5625 L 421.128906 779.117188 C 420.644531 778.894531 420.179688 778.644531 419.730469 778.363281 C 419.277344 778.082031 418.847656 777.773438 418.433594 777.441406 C 418.023438 777.105469 417.632812 776.746094 417.265625 776.363281 C 416.898438 775.980469 416.554688 775.574219 416.234375 775.148438 C 415.917969 774.726562 415.628906 774.28125 415.367188 773.820312 C 415.101562 773.359375 414.871094 772.882812 414.667969 772.390625 C 414.464844 771.902344 414.289062 771.398438 414.148438 770.886719 C 414.007812 770.375 413.898438 769.855469 413.824219 769.332031 C 413.746094 768.804688 413.703125 768.277344 413.691406 767.746094 C 413.679688 767.214844 413.699219 766.6875 413.753906 766.15625 C 413.808594 765.628906 413.898438 765.105469 414.015625 764.589844 C 414.136719 764.070312 414.285156 763.5625 414.46875 763.066406 C 414.652344 762.566406 414.863281 762.082031 415.105469 761.609375 C 415.351562 761.136719 415.621094 760.679688 415.921875 760.242188 C 416.21875 759.804688 416.542969 759.386719 416.894531 758.988281 C 417.246094 758.589844 417.621094 758.214844 418.019531 757.863281 L 462.59375 716.25 C 463.207031 715.675781 463.875 715.167969 464.589844 714.726562 C 465.308594 714.285156 466.058594 713.917969 466.847656 713.625 C 467.636719 713.328125 468.445312 713.117188 469.277344 712.980469 C 470.105469 712.847656 470.941406 712.792969 471.785156 712.824219 C 472.625 712.855469 473.453125 712.96875 474.273438 713.160156 C 475.09375 713.355469 475.886719 713.625 476.648438 713.976562 C 477.414062 714.328125 478.140625 714.746094 478.820312 715.238281 C 479.503906 715.730469 480.132812 716.285156 480.707031 716.902344 C 481.277344 717.519531 481.785156 718.183594 482.226562 718.902344 C 482.671875 719.617188 483.039062 720.367188 483.332031 721.15625 C 483.625 721.945312 483.839844 722.753906 483.972656 723.585938 C 484.109375 724.417969 484.160156 725.253906 484.128906 726.09375 C 484.101562 726.933594 483.988281 727.765625 483.792969 728.582031 C 483.601562 729.402344 483.328125 730.195312 482.980469 730.960938 C 482.628906 731.726562 482.207031 732.449219 481.714844 733.132812 C 481.222656 733.8125 480.667969 734.441406 480.050781 735.015625 L 462.761719 751.15625 C 476.816406 749.023438 490.683594 746.035156 504.367188 742.191406 C 518.050781 738.347656 531.445312 733.679688 544.554688 728.183594 C 557.660156 722.6875 570.378906 716.402344 582.710938 709.335938 C 595.042969 702.269531 606.894531 694.472656 618.265625 685.941406 L 636.871094 704 C 624.980469 713.117188 612.585938 721.488281 599.679688 729.105469 C 586.777344 736.722656 573.460938 743.535156 559.730469 749.542969 C 546 755.546875 531.960938 760.703125 517.605469 765.011719 C 503.253906 769.316406 488.695312 772.742188 473.925781 775.285156 L 493.386719 784.277344 Z M 689.964844 613.292969 C 702.40625 596.191406 713.179688 578.09375 722.28125 559 C 731.382812 539.90625 738.65625 520.140625 744.105469 499.707031 C 744.324219 498.894531 744.621094 498.109375 744.992188 497.351562 C 745.363281 496.597656 745.808594 495.886719 746.320312 495.21875 C 746.832031 494.550781 747.40625 493.9375 748.039062 493.382812 C 748.671875 492.828125 749.351562 492.339844 750.078125 491.917969 C 750.808594 491.496094 751.570312 491.152344 752.367188 490.878906 C 753.167969 490.609375 753.980469 490.417969 754.816406 490.308594 C 755.652344 490.199219 756.488281 490.171875 757.328125 490.226562 C 758.167969 490.277344 758.996094 490.414062 759.808594 490.632812 C 760.621094 490.851562 761.40625 491.144531 762.164062 491.515625 C 762.917969 491.886719 763.628906 492.328125 764.296875 492.84375 C 764.964844 493.355469 765.578125 493.925781 766.132812 494.558594 C 766.691406 495.191406 767.179688 495.871094 767.601562 496.601562 C 768.023438 497.328125 768.367188 498.089844 768.640625 498.890625 C 768.910156 499.6875 769.101562 500.5 769.214844 501.335938 C 769.324219 502.171875 769.351562 503.007812 769.296875 503.847656 C 769.246094 504.6875 769.109375 505.515625 768.890625 506.328125 C 762.878906 528.882812 754.796875 550.667969 744.644531 571.6875 C 734.496094 592.703125 722.460938 612.582031 708.535156 631.3125 Z M 37.871094 492.421875 L 46.847656 472.996094 C 47.59375 477.324219 48.410156 481.636719 49.308594 485.9375 C 50.203125 490.238281 51.175781 494.519531 52.226562 498.785156 C 53.273438 503.046875 54.398438 507.292969 55.597656 511.519531 C 56.796875 515.742188 58.070312 519.945312 59.421875 524.125 C 60.769531 528.304688 62.195312 532.457031 63.691406 536.585938 C 65.1875 540.714844 66.757812 544.816406 68.402344 548.890625 C 70.046875 552.964844 71.761719 557.007812 73.546875 561.019531 C 75.335938 565.03125 77.191406 569.007812 79.121094 572.953125 C 81.050781 576.898438 83.046875 580.8125 85.117188 584.683594 C 87.183594 588.558594 89.320312 592.398438 91.523438 596.195312 C 93.730469 599.992188 96 603.753906 98.339844 607.46875 C 100.675781 611.1875 103.082031 614.863281 105.550781 618.496094 C 108.019531 622.125 110.550781 625.714844 113.148438 629.257812 C 115.746094 632.796875 118.40625 636.292969 121.125 639.742188 C 123.847656 643.1875 126.628906 646.585938 129.46875 649.933594 C 132.3125 653.28125 135.214844 656.578125 138.171875 659.824219 C 141.132812 663.070312 144.148438 666.261719 147.222656 669.398438 C 150.292969 672.535156 153.421875 675.617188 156.605469 678.644531 C 159.789062 681.671875 163.023438 684.640625 166.3125 687.550781 C 169.601562 690.460938 172.941406 693.316406 176.328125 696.105469 C 179.71875 698.898438 183.160156 701.628906 186.644531 704.300781 C 190.132812 706.96875 193.667969 709.578125 197.246094 712.121094 C 200.828125 714.667969 204.449219 717.144531 208.117188 719.5625 C 211.785156 721.976562 215.496094 724.324219 219.25 726.609375 C 223 728.890625 226.792969 731.109375 230.621094 733.257812 C 234.453125 735.402344 238.320312 737.484375 242.226562 739.492188 C 246.128906 741.503906 250.070312 743.445312 254.042969 745.316406 C 258.015625 747.1875 262.023438 748.984375 266.0625 750.710938 C 270.097656 752.441406 274.167969 754.09375 278.261719 755.679688 C 282.359375 757.261719 286.484375 758.769531 290.632812 760.207031 C 294.785156 761.644531 298.960938 763.003906 303.160156 764.292969 C 307.355469 765.582031 311.578125 766.792969 315.820312 767.929688 C 316.632812 768.148438 317.460938 768.285156 318.300781 768.339844 C 319.140625 768.390625 319.980469 768.363281 320.8125 768.253906 C 321.648438 768.144531 322.464844 767.953125 323.261719 767.679688 C 324.058594 767.410156 324.824219 767.0625 325.550781 766.640625 C 326.28125 766.21875 326.960938 765.730469 327.59375 765.175781 C 328.226562 764.621094 328.800781 764.007812 329.3125 763.339844 C 329.824219 762.671875 330.265625 761.957031 330.640625 761.203125 C 331.011719 760.445312 331.304688 759.664062 331.523438 758.847656 C 331.742188 758.035156 331.875 757.207031 331.929688 756.367188 C 331.984375 755.527344 331.957031 754.6875 331.847656 753.855469 C 331.734375 753.019531 331.546875 752.203125 331.273438 751.40625 C 331.003906 750.609375 330.65625 749.84375 330.234375 749.117188 C 329.8125 748.386719 329.324219 747.707031 328.769531 747.074219 C 328.210938 746.441406 327.601562 745.867188 326.929688 745.355469 C 326.261719 744.84375 325.550781 744.402344 324.796875 744.03125 C 324.039062 743.65625 323.253906 743.363281 322.441406 743.144531 C 318.421875 742.070312 314.425781 740.921875 310.449219 739.703125 C 306.46875 738.484375 302.515625 737.191406 298.585938 735.828125 C 294.65625 734.464844 290.753906 733.03125 286.875 731.527344 C 282.996094 730.023438 279.144531 728.449219 275.324219 726.804688 C 271.503906 725.160156 267.714844 723.445312 263.953125 721.664062 C 260.195312 719.882812 256.46875 718.03125 252.777344 716.117188 C 249.085938 714.199219 245.429688 712.214844 241.808594 710.167969 C 238.191406 708.117188 234.609375 706.003906 231.066406 703.824219 C 227.523438 701.644531 224.019531 699.402344 220.558594 697.09375 C 217.09375 694.789062 213.675781 692.421875 210.300781 689.988281 C 206.921875 687.558594 203.59375 685.070312 200.308594 682.515625 C 197.019531 679.964844 193.78125 677.355469 190.589844 674.6875 C 187.398438 672.019531 184.257812 669.292969 181.164062 666.511719 C 178.074219 663.730469 175.03125 660.890625 172.042969 658 C 169.054688 655.105469 166.117188 652.160156 163.234375 649.160156 C 160.351562 646.160156 157.523438 643.113281 154.753906 640.011719 C 151.980469 636.90625 149.265625 633.757812 146.609375 630.558594 C 143.949219 627.355469 141.351562 624.109375 138.8125 620.816406 C 136.269531 617.519531 133.789062 614.179688 131.371094 610.796875 C 128.953125 607.414062 126.597656 603.984375 124.300781 600.515625 C 122.007812 597.046875 119.777344 593.535156 117.609375 589.984375 C 115.441406 586.433594 113.339844 582.847656 111.300781 579.21875 C 109.261719 575.59375 107.292969 571.929688 105.386719 568.230469 C 103.484375 564.53125 101.648438 560.800781 99.878906 557.035156 C 98.109375 553.269531 96.40625 549.476562 94.777344 545.648438 C 93.144531 541.824219 91.582031 537.96875 90.089844 534.085938 C 88.597656 530.199219 87.179688 526.292969 85.828125 522.355469 C 84.480469 518.421875 83.199219 514.464844 81.992188 510.484375 C 80.789062 506.503906 79.652344 502.5 78.589844 498.476562 C 77.53125 494.457031 76.542969 490.417969 75.628906 486.359375 C 74.710938 482.300781 73.871094 478.226562 73.105469 474.136719 C 72.335938 470.050781 71.644531 465.949219 71.023438 461.835938 L 87.132812 479.089844 C 87.707031 479.707031 88.335938 480.257812 89.015625 480.753906 C 89.699219 481.246094 90.421875 481.664062 91.1875 482.015625 C 91.953125 482.363281 92.746094 482.636719 93.566406 482.832031 C 94.382812 483.023438 95.214844 483.136719 96.054688 483.167969 C 96.894531 483.195312 97.730469 483.144531 98.5625 483.011719 C 99.394531 482.875 100.203125 482.664062 100.992188 482.367188 C 101.78125 482.074219 102.53125 481.707031 103.25 481.265625 C 103.964844 480.824219 104.628906 480.316406 105.246094 479.742188 C 105.863281 479.167969 106.417969 478.539062 106.910156 477.859375 C 107.402344 477.175781 107.824219 476.453125 108.171875 475.6875 C 108.523438 474.921875 108.792969 474.128906 108.988281 473.308594 C 109.179688 472.492188 109.292969 471.660156 109.324219 470.820312 C 109.355469 469.980469 109.300781 469.144531 109.167969 468.3125 C 109.035156 467.484375 108.820312 466.671875 108.527344 465.882812 C 108.230469 465.097656 107.863281 464.34375 107.421875 463.628906 C 106.980469 462.910156 106.472656 462.246094 105.898438 461.628906 L 64.289062 417.054688 C 63.9375 416.660156 63.5625 416.285156 63.164062 415.933594 C 62.765625 415.582031 62.347656 415.257812 61.910156 414.957031 C 61.472656 414.65625 61.015625 414.386719 60.542969 414.144531 C 60.070312 413.902344 59.585938 413.6875 59.085938 413.503906 C 58.589844 413.324219 58.078125 413.171875 57.5625 413.054688 C 57.046875 412.933594 56.523438 412.847656 55.992188 412.792969 C 55.464844 412.738281 54.9375 412.714844 54.40625 412.726562 C 53.875 412.738281 53.347656 412.78125 52.820312 412.859375 C 52.296875 412.9375 51.777344 413.046875 51.265625 413.1875 C 50.753906 413.328125 50.25 413.5 49.761719 413.703125 C 49.269531 413.90625 48.792969 414.140625 48.332031 414.402344 C 47.871094 414.664062 47.425781 414.957031 47 415.273438 C 46.574219 415.589844 46.171875 415.933594 45.789062 416.300781 C 45.40625 416.667969 45.046875 417.058594 44.710938 417.472656 C 44.378906 417.882812 44.070312 418.316406 43.789062 418.765625 C 43.507812 419.214844 43.257812 419.683594 43.03125 420.164062 L 14.589844 481.683594 C 14.246094 482.449219 13.976562 483.238281 13.785156 484.054688 C 13.59375 484.871094 13.484375 485.699219 13.457031 486.535156 C 13.425781 487.371094 13.480469 488.207031 13.613281 489.03125 C 13.746094 489.859375 13.960938 490.667969 14.253906 491.453125 C 14.546875 492.238281 14.914062 492.988281 15.351562 493.699219 C 15.792969 494.414062 16.296875 495.078125 16.867188 495.691406 C 17.4375 496.308594 18.058594 496.859375 18.738281 497.351562 C 19.417969 497.84375 20.136719 498.265625 20.898438 498.617188 C 21.660156 498.96875 22.445312 499.242188 23.261719 499.4375 C 24.078125 499.636719 24.902344 499.75 25.738281 499.785156 C 26.578125 499.820312 27.410156 499.773438 28.238281 499.644531 C 29.066406 499.515625 29.875 499.304688 30.660156 499.019531 C 31.449219 498.730469 32.199219 498.371094 32.917969 497.933594 C 33.632812 497.5 34.300781 497 34.917969 496.433594 C 35.539062 495.867188 36.09375 495.246094 36.59375 494.574219 C 37.089844 493.898438 37.515625 493.179688 37.871094 492.421875 Z M 329.730469 36.90625 L 349.132812 45.878906 C 344.800781 46.621094 340.488281 47.4375 336.1875 48.335938 C 331.890625 49.230469 327.605469 50.203125 323.34375 51.25 C 319.078125 52.300781 314.832031 53.421875 310.605469 54.621094 C 306.382812 55.820312 302.179688 57.09375 298 58.445312 C 293.820312 59.792969 289.664062 61.214844 285.535156 62.714844 C 281.40625 64.210938 277.308594 65.78125 273.234375 67.421875 C 269.160156 69.066406 265.117188 70.78125 261.105469 72.570312 C 257.09375 74.355469 253.113281 76.214844 249.167969 78.140625 C 245.222656 80.070312 241.3125 82.070312 237.4375 84.136719 C 233.5625 86.203125 229.726562 88.339844 225.929688 90.542969 C 222.128906 92.75 218.371094 95.019531 214.652344 97.359375 C 210.9375 99.695312 207.261719 102.101562 203.628906 104.570312 C 199.996094 107.039062 196.410156 109.570312 192.867188 112.167969 C 189.324219 114.765625 185.832031 117.425781 182.382812 120.144531 C 178.9375 122.867188 175.539062 125.648438 172.191406 128.492188 C 168.84375 131.332031 165.546875 134.234375 162.300781 137.195312 C 159.054688 140.152344 155.863281 143.171875 152.726562 146.242188 C 149.589844 149.316406 146.507812 152.445312 143.480469 155.628906 C 140.453125 158.8125 137.484375 162.046875 134.574219 165.335938 C 131.664062 168.625 128.8125 171.964844 126.019531 175.355469 C 123.230469 178.746094 120.496094 182.183594 117.828125 185.671875 C 115.160156 189.160156 112.550781 192.691406 110.007812 196.273438 C 107.464844 199.851562 104.984375 203.476562 102.570312 207.144531 C 100.15625 210.816406 97.808594 214.523438 95.523438 218.277344 C 93.242188 222.03125 91.027344 225.820312 88.878906 229.652344 C 86.730469 233.484375 84.652344 237.351562 82.644531 241.257812 C 80.632812 245.160156 78.695312 249.101562 76.824219 253.074219 C 74.953125 257.050781 73.15625 261.054688 71.429688 265.09375 C 69.703125 269.132812 68.046875 273.199219 66.464844 277.296875 C 64.882812 281.394531 63.375 285.519531 61.941406 289.667969 C 60.503906 293.820312 59.144531 297.996094 57.859375 302.195312 C 56.570312 306.394531 55.359375 310.613281 54.222656 314.855469 C 54.007812 315.671875 53.871094 316.496094 53.816406 317.335938 C 53.761719 318.179688 53.789062 319.015625 53.898438 319.851562 C 54.011719 320.683594 54.203125 321.5 54.472656 322.296875 C 54.742188 323.09375 55.089844 323.859375 55.511719 324.585938 C 55.933594 325.316406 56.421875 325.996094 56.976562 326.628906 C 57.53125 327.261719 58.144531 327.835938 58.8125 328.347656 C 59.480469 328.859375 60.191406 329.300781 60.949219 329.671875 C 61.703125 330.046875 62.488281 330.339844 63.300781 330.558594 C 64.117188 330.777344 64.941406 330.914062 65.78125 330.96875 C 66.621094 331.023438 67.460938 330.996094 68.296875 330.882812 C 69.128906 330.773438 69.945312 330.582031 70.742188 330.3125 C 71.539062 330.042969 72.304688 329.695312 73.03125 329.273438 C 73.761719 328.855469 74.441406 328.367188 75.078125 327.808594 C 75.710938 327.253906 76.28125 326.644531 76.792969 325.976562 C 77.308594 325.308594 77.75 324.59375 78.121094 323.839844 C 78.496094 323.085938 78.789062 322.300781 79.007812 321.488281 C 80.082031 317.46875 81.230469 313.472656 82.453125 309.496094 C 83.671875 305.519531 84.964844 301.566406 86.328125 297.636719 C 87.695312 293.707031 89.128906 289.804688 90.632812 285.925781 C 92.140625 282.046875 93.714844 278.199219 95.359375 274.378906 C 97.003906 270.558594 98.71875 266.769531 100.5 263.011719 C 102.28125 259.25 104.132812 255.527344 106.050781 251.835938 C 107.96875 248.144531 109.949219 244.488281 112 240.871094 C 114.050781 237.25 116.164062 233.667969 118.34375 230.125 C 120.523438 226.582031 122.765625 223.082031 125.074219 219.621094 C 127.378906 216.15625 129.75 212.738281 132.179688 209.363281 C 134.609375 205.988281 137.101562 202.65625 139.652344 199.371094 C 142.203125 196.085938 144.8125 192.847656 147.480469 189.65625 C 150.148438 186.464844 152.875 183.324219 155.65625 180.234375 C 158.4375 177.140625 161.277344 174.101562 164.167969 171.109375 C 167.0625 168.121094 170.007812 165.1875 173.007812 162.304688 C 176.003906 159.421875 179.054688 156.59375 182.15625 153.824219 C 185.257812 151.050781 188.410156 148.335938 191.609375 145.679688 C 194.808594 143.019531 198.054688 140.421875 201.347656 137.882812 C 204.644531 135.339844 207.980469 132.863281 211.367188 130.441406 C 214.75 128.023438 218.175781 125.667969 221.644531 123.371094 C 225.113281 121.078125 228.625 118.847656 232.175781 116.679688 C 235.726562 114.511719 239.3125 112.40625 242.941406 110.371094 C 246.566406 108.332031 250.226562 106.363281 253.925781 104.457031 C 257.625 102.550781 261.355469 100.714844 265.121094 98.945312 C 268.882812 97.175781 272.679688 95.476562 276.503906 93.84375 C 280.332031 92.210938 284.183594 90.648438 288.066406 89.15625 C 291.949219 87.664062 295.859375 86.242188 299.792969 84.890625 C 303.726562 83.539062 307.683594 82.261719 311.664062 81.054688 C 315.644531 79.847656 319.648438 78.710938 323.667969 77.648438 C 327.691406 76.585938 331.730469 75.597656 335.789062 74.683594 C 339.84375 73.765625 343.917969 72.925781 348.003906 72.15625 C 352.09375 71.386719 356.195312 70.695312 360.308594 70.074219 L 343.0625 86.171875 C 342.445312 86.746094 341.894531 87.375 341.402344 88.058594 C 340.910156 88.738281 340.488281 89.464844 340.140625 90.226562 C 339.789062 90.992188 339.519531 91.785156 339.324219 92.605469 C 339.132812 93.421875 339.019531 94.253906 338.988281 95.09375 C 338.960938 95.933594 339.011719 96.769531 339.144531 97.601562 C 339.28125 98.429688 339.496094 99.238281 339.789062 100.027344 C 340.082031 100.816406 340.449219 101.570312 340.890625 102.285156 C 341.335938 103 341.839844 103.667969 342.414062 104.28125 C 342.988281 104.898438 343.613281 105.453125 344.296875 105.945312 C 344.980469 106.4375 345.703125 106.859375 346.46875 107.207031 C 347.234375 107.558594 348.023438 107.828125 348.84375 108.023438 C 349.664062 108.214844 350.492188 108.328125 351.332031 108.359375 C 352.171875 108.390625 353.007812 108.339844 353.839844 108.203125 C 354.667969 108.070312 355.480469 107.855469 356.269531 107.5625 C 357.054688 107.269531 357.808594 106.902344 358.523438 106.460938 C 359.242188 106.019531 359.90625 105.511719 360.523438 104.9375 L 405.09375 63.328125 C 405.492188 62.976562 405.867188 62.601562 406.21875 62.203125 C 406.570312 61.804688 406.894531 61.386719 407.195312 60.945312 C 407.496094 60.507812 407.765625 60.050781 408.007812 59.578125 C 408.25 59.109375 408.464844 58.621094 408.644531 58.125 C 408.828125 57.625 408.980469 57.117188 409.097656 56.597656 C 409.21875 56.082031 409.304688 55.558594 409.359375 55.03125 C 409.414062 54.503906 409.4375 53.972656 409.425781 53.441406 C 409.414062 52.910156 409.371094 52.382812 409.292969 51.855469 C 409.214844 51.332031 409.105469 50.8125 408.964844 50.300781 C 408.824219 49.789062 408.652344 49.289062 408.449219 48.796875 C 408.246094 48.308594 408.011719 47.832031 407.75 47.371094 C 407.488281 46.90625 407.195312 46.464844 406.878906 46.039062 C 406.5625 45.613281 406.21875 45.207031 405.851562 44.824219 C 405.484375 44.441406 405.09375 44.082031 404.679688 43.75 C 404.269531 43.414062 403.835938 43.105469 403.386719 42.824219 C 402.933594 42.542969 402.46875 42.292969 401.988281 42.070312 L 340.464844 13.628906 C 339.703125 13.269531 338.910156 12.988281 338.085938 12.785156 C 337.265625 12.582031 336.433594 12.464844 335.589844 12.425781 C 334.746094 12.390625 333.90625 12.433594 333.070312 12.5625 C 332.234375 12.691406 331.421875 12.902344 330.625 13.191406 C 329.832031 13.480469 329.074219 13.847656 328.351562 14.285156 C 327.632812 14.726562 326.960938 15.230469 326.335938 15.804688 C 325.714844 16.375 325.15625 17.003906 324.660156 17.6875 C 324.160156 18.371094 323.734375 19.097656 323.382812 19.863281 C 323.027344 20.632812 322.753906 21.425781 322.554688 22.25 C 322.359375 23.070312 322.246094 23.902344 322.210938 24.75 C 322.179688 25.59375 322.230469 26.433594 322.367188 27.265625 C 322.5 28.101562 322.714844 28.914062 323.011719 29.707031 C 323.304688 30.5 323.675781 31.253906 324.117188 31.972656 C 324.5625 32.691406 325.074219 33.359375 325.652344 33.980469 C 326.226562 34.597656 326.859375 35.152344 327.546875 35.644531 C 328.230469 36.136719 328.960938 36.558594 329.730469 36.90625 Z M 570.652344 185.835938 C 579.570312 187.960938 587.929688 191.425781 595.730469 196.234375 L 612.023438 188.996094 L 631.230469 208.203125 L 623.996094 224.492188 C 628.804688 232.296875 632.269531 240.65625 634.394531 249.574219 L 651.019531 255.972656 L 651.019531 283.132812 L 634.390625 289.539062 C 632.265625 298.453125 628.800781 306.8125 623.992188 314.613281 L 631.230469 330.910156 L 612.023438 350.113281 L 595.734375 342.878906 C 587.929688 347.6875 579.570312 351.152344 570.652344 353.277344 L 564.253906 369.902344 L 537.09375 369.902344 L 530.6875 353.277344 C 521.773438 351.152344 513.414062 347.6875 505.609375 342.882812 L 489.316406 350.117188 L 470.109375 330.910156 L 477.347656 314.621094 C 472.535156 306.816406 469.070312 298.457031 466.949219 289.539062 L 450.324219 283.140625 L 450.324219 255.980469 L 466.953125 249.582031 C 469.074219 240.664062 472.539062 232.304688 477.347656 224.503906 L 470.113281 208.210938 L 489.316406 189.003906 L 505.613281 196.242188 C 513.414062 191.433594 521.773438 187.964844 530.6875 185.835938 L 537.085938 169.210938 L 564.25 169.210938 Z M 570.652344 185.835938 " fill-opacity="1" fill-rule="evenodd"/></svg>